<svg xmlns="http://www.w3.org/2000/svg" xmlns:xlink="http://www.w3.org/1999/xlink" width="500" zoomAndPan="magnify" viewBox="0 0 375 374.999991" height="500" preserveAspectRatio="xMidYMid meet" version="1.0"><path fill="#000000" d="M 305.8125 96.0625 L 316.75 68.75 L 325.8125 68.75 C 328.5625 79.5625 338.375 87.5 350 87.5 C 363.8125 87.5 375 76.3125 375 62.5 C 375 48.6875 363.8125 37.5 350 37.5 C 338.375 37.5 328.5625 45.4375 325.8125 56.25 L 312.5 56.25 C 309.9375 56.25 307.625 57.8125 306.6875 60.1875 L 295.75 87.5 L 256.25 87.5 C 254.8125 85.625 253.25 83.9375 251.4375 82.4375 L 265.0625 68.75 L 287.5 68.75 C 290.9375 68.75 293.75 65.9375 293.75 62.5 L 293.75 49.1875 C 304.5625 46.4375 312.5 36.625 312.5 25 C 312.5 11.1875 301.3125 0 287.5 0 C 273.6875 0 262.5 11.1875 262.5 25 C 262.5 36.625 270.4375 46.4375 281.25 49.1875 L 281.25 56.25 L 262.5 56.25 C 260.8125 56.25 259.25 56.9375 258.0625 58.0625 L 239.9375 76.1875 C 237.1875 75.4375 234.25 75 231.25 75 L 225 75 L 225 56.25 C 225 45.9375 216.5625 37.5 206.25 37.5 C 195.9375 37.5 187.5 45.9375 187.5 56.25 L 187.5 75 L 168.75 75 L 168.75 56.25 C 168.75 45.9375 160.3125 37.5 150 37.5 C 139.6875 37.5 131.25 45.9375 131.25 56.25 L 131.25 75 L 112.5 75 L 112.5 56.25 C 112.5 45.9375 104.0625 37.5 93.75 37.5 C 83.4375 37.5 75 45.9375 75 56.25 L 75 75 L 68.75 75 C 51.5 75 37.5 89 37.5 106.25 L 37.5 112.5 L 18.75 112.5 C 8.4375 112.5 0 120.9375 0 131.25 C 0 141.5625 8.4375 150 18.75 150 L 37.5 150 L 37.5 168.75 L 18.75 168.75 C 8.4375 168.75 0 177.1875 0 187.5 C 0 197.8125 8.4375 206.25 18.75 206.25 L 37.5 206.25 L 37.5 225 L 18.75 225 C 8.4375 225 0 233.4375 0 243.75 C 0 254.0625 8.4375 262.5 18.75 262.5 L 37.5 262.5 L 37.5 268.75 C 37.5 286 51.5 300 68.75 300 L 75 300 L 75 318.75 C 75 329.0625 83.4375 337.5 93.75 337.5 C 104.0625 337.5 112.5 329.0625 112.5 318.75 L 112.5 300 L 131.25 300 L 131.25 318.75 C 131.25 329.0625 139.6875 337.5 150 337.5 C 160.3125 337.5 168.75 329.0625 168.75 318.75 L 168.75 300 L 187.5 300 L 187.5 318.75 C 187.5 329.0625 195.9375 337.5 206.25 337.5 C 216.5625 337.5 225 329.0625 225 318.75 L 225 300 L 282.5 300 L 293.875 351.375 C 294.5625 354.1875 297.0625 356.25 300 356.25 L 325.8125 356.25 C 328.5625 367.0625 338.375 375 350 375 C 363.8125 375 375 363.8125 375 350 C 375 336.1875 363.8125 325 350 325 C 338.375 325 328.5625 332.9375 325.8125 343.75 L 305 343.75 L 293.625 292.375 C 292.9375 289.5625 290.4375 287.5 287.5 287.5 L 256.25 287.5 C 260.1875 282.3125 262.5 275.8125 262.5 268.75 L 262.5 250 L 289.25 250 L 294.0625 264.5 C 294.9375 267 297.3125 268.75 300 268.75 L 313.3125 268.75 C 316.0625 279.5625 325.875 287.5 337.5 287.5 C 351.3125 287.5 362.5 276.3125 362.5 262.5 C 362.5 248.6875 351.3125 237.5 337.5 237.5 C 325.875 237.5 316.0625 245.4375 313.3125 256.25 L 304.5 256.25 L 299.6875 241.75 C 298.8125 239.25 296.4375 237.5 293.75 237.5 L 262.5 237.5 L 262.5 193.75 L 282.0625 193.75 C 284.8125 204.5625 294.625 212.5 306.25 212.5 C 320.0625 212.5 331.25 201.3125 331.25 187.5 C 331.25 173.6875 320.0625 162.5 306.25 162.5 C 294.625 162.5 284.8125 170.4375 282.0625 181.25 L 262.5 181.25 L 262.5 143.75 L 325.8125 143.75 C 328.5625 154.5625 338.375 162.5 350 162.5 C 363.8125 162.5 375 151.3125 375 137.5 C 375 123.6875 363.8125 112.5 350 112.5 C 338.375 112.5 328.5625 120.4375 325.8125 131.25 L 262.5 131.25 L 262.5 106.25 C 262.5 104.125 262.3125 102 261.875 100 L 300 100 C 302.5625 100 304.875 98.4375 305.8125 96.0625 Z M 350 50 C 356.875 50 362.5 55.625 362.5 62.5 C 362.5 69.375 356.875 75 350 75 C 343.125 75 337.5 69.375 337.5 62.5 C 337.5 55.625 343.125 50 350 50 Z M 275 25 C 275 18.125 280.625 12.5 287.5 12.5 C 294.375 12.5 300 18.125 300 25 C 300 31.875 294.375 37.5 287.5 37.5 C 280.625 37.5 275 31.875 275 25 Z M 37.5 250 L 18.75 250 C 15.3125 250 12.5 247.1875 12.5 243.75 C 12.5 240.3125 15.3125 237.5 18.75 237.5 L 37.5 237.5 Z M 37.5 193.75 L 18.75 193.75 C 15.3125 193.75 12.5 190.9375 12.5 187.5 C 12.5 184.0625 15.3125 181.25 18.75 181.25 L 37.5 181.25 Z M 37.5 137.5 L 18.75 137.5 C 15.3125 137.5 12.5 134.6875 12.5 131.25 C 12.5 127.8125 15.3125 125 18.75 125 L 37.5 125 Z M 200 56.25 C 200 52.8125 202.8125 50 206.25 50 C 209.6875 50 212.5 52.8125 212.5 56.25 L 212.5 75 L 200 75 Z M 143.75 56.25 C 143.75 52.8125 146.5625 50 150 50 C 153.4375 50 156.25 52.8125 156.25 56.25 L 156.25 75 L 143.75 75 Z M 87.5 56.25 C 87.5 52.8125 90.3125 50 93.75 50 C 97.1875 50 100 52.8125 100 56.25 L 100 75 L 87.5 75 Z M 100 318.75 C 100 322.1875 97.1875 325 93.75 325 C 90.3125 325 87.5 322.1875 87.5 318.75 L 87.5 300 L 100 300 Z M 156.25 318.75 C 156.25 322.1875 153.4375 325 150 325 C 146.5625 325 143.75 322.1875 143.75 318.75 L 143.75 300 L 156.25 300 Z M 212.5 318.75 C 212.5 322.1875 209.6875 325 206.25 325 C 202.8125 325 200 322.1875 200 318.75 L 200 300 L 212.5 300 Z M 218.75 256.25 L 81.25 256.25 L 81.25 118.75 L 218.75 118.75 Z M 350 337.5 C 356.875 337.5 362.5 343.125 362.5 350 C 362.5 356.875 356.875 362.5 350 362.5 C 343.125 362.5 337.5 356.875 337.5 350 C 337.5 343.125 343.125 337.5 350 337.5 Z M 337.5 250 C 344.375 250 350 255.625 350 262.5 C 350 269.375 344.375 275 337.5 275 C 330.625 275 325 269.375 325 262.5 C 325 255.625 330.625 250 337.5 250 Z M 306.25 175 C 313.125 175 318.75 180.625 318.75 187.5 C 318.75 194.375 313.125 200 306.25 200 C 299.375 200 293.75 194.375 293.75 187.5 C 293.75 180.625 299.375 175 306.25 175 Z M 350 125 C 356.875 125 362.5 130.625 362.5 137.5 C 362.5 144.375 356.875 150 350 150 C 343.125 150 337.5 144.375 337.5 137.5 C 337.5 130.625 343.125 125 350 125 Z M 350 125 " fill-opacity="1" fill-rule="nonzero"/><path fill="#000000" d="M 137.5 131.25 C 134.0625 131.25 131.25 134.0625 131.25 137.5 L 131.25 148 C 129.125 149 127.0625 150.1875 125.1875 151.5 L 116.0625 146.25 C 113.0625 144.5625 109.25 145.5625 107.5625 148.5625 L 95.0625 170.1875 C 93.3125 173.1875 94.3125 177 97.3125 178.75 L 106.375 184 C 106.3125 185.1875 106.25 186.3125 106.25 187.5 C 106.25 188.6875 106.3125 189.8125 106.375 191 L 97.3125 196.25 C 94.3125 198 93.3125 201.8125 95.0625 204.8125 L 107.5625 226.4375 C 109.25 229.4375 113.0625 230.4375 116.0625 228.75 L 125.1875 223.5 C 127.0625 224.8125 129.125 226 131.25 227 L 131.25 237.5 C 131.25 240.9375 134.0625 243.75 137.5 243.75 L 162.5 243.75 C 165.9375 243.75 168.75 240.9375 168.75 237.5 L 168.75 227 C 170.875 226 172.9375 224.8125 174.8125 223.5 L 183.9375 228.75 C 186.9375 230.4375 190.75 229.4375 192.4375 226.4375 L 204.9375 204.8125 C 206.6875 201.8125 205.6875 198 202.6875 196.25 L 193.625 191 C 193.6875 189.8125 193.75 188.6875 193.75 187.5 C 193.75 186.3125 193.6875 185.1875 193.625 184 L 202.6875 178.75 C 205.6875 177 206.6875 173.1875 204.9375 170.1875 L 192.4375 148.5625 C 190.75 145.5625 186.9375 144.5625 183.9375 146.25 L 174.8125 151.5 C 172.9375 150.1875 170.875 149 168.75 148 L 168.75 137.5 C 168.75 134.0625 165.9375 131.25 162.5 131.25 Z M 168.75 187.5 C 168.75 197.8125 160.3125 206.25 150 206.25 C 139.6875 206.25 131.25 197.8125 131.25 187.5 C 131.25 177.1875 139.6875 168.75 150 168.75 C 160.3125 168.75 168.75 177.1875 168.75 187.5 Z M 168.75 187.5 " fill-opacity="1" fill-rule="nonzero"/></svg>