<svg xmlns="http://www.w3.org/2000/svg" xmlns:xlink="http://www.w3.org/1999/xlink" width="500" zoomAndPan="magnify" viewBox="0 0 375 374.999991" height="500" preserveAspectRatio="xMidYMid meet" version="1.0"><path fill="#000000" d="M 199.589844 293.554688 L 175.40625 293.554688 C 174.882812 293.554688 174.367188 293.507812 173.851562 293.417969 C 173.339844 293.328125 172.835938 293.195312 172.347656 293.019531 C 171.855469 292.84375 171.386719 292.625 170.933594 292.367188 C 170.480469 292.109375 170.050781 291.8125 169.652344 291.480469 C 169.25 291.148438 168.878906 290.78125 168.542969 290.386719 C 168.203125 289.988281 167.902344 289.566406 167.636719 289.117188 C 167.371094 288.667969 167.148438 288.199219 166.964844 287.710938 C 166.78125 287.222656 166.640625 286.722656 166.542969 286.210938 L 162.328125 263.902344 C 162.246094 263.421875 161.972656 263.09375 161.515625 262.925781 C 158.625 261.921875 155.804688 260.753906 153.050781 259.421875 C 152.632812 259.230469 152.234375 259.265625 151.855469 259.53125 L 133.070312 272.367188 C 132.640625 272.664062 132.1875 272.917969 131.710938 273.132812 C 131.238281 273.347656 130.746094 273.519531 130.242188 273.652344 C 129.738281 273.78125 129.226562 273.867188 128.707031 273.910156 C 128.1875 273.949219 127.667969 273.945312 127.148438 273.898438 C 126.628906 273.851562 126.117188 273.757812 125.613281 273.621094 C 125.109375 273.480469 124.621094 273.304688 124.152344 273.082031 C 123.679688 272.859375 123.230469 272.597656 122.804688 272.296875 C 122.375 272 121.980469 271.664062 121.609375 271.296875 L 104.496094 254.179688 C 104.125 253.808594 103.792969 253.414062 103.492188 252.984375 C 103.191406 252.558594 102.929688 252.109375 102.710938 251.636719 C 102.488281 251.167969 102.308594 250.679688 102.171875 250.175781 C 102.035156 249.671875 101.941406 249.160156 101.890625 248.644531 C 101.84375 248.125 101.839844 247.605469 101.882812 247.085938 C 101.921875 246.566406 102.007812 246.050781 102.140625 245.546875 C 102.269531 245.042969 102.441406 244.550781 102.65625 244.078125 C 102.871094 243.601562 103.125 243.148438 103.421875 242.71875 L 116.257812 223.933594 C 116.523438 223.558594 116.5625 223.160156 116.371094 222.738281 C 115.035156 219.988281 113.867188 217.164062 112.871094 214.269531 C 112.695312 213.816406 112.367188 213.546875 111.886719 213.460938 L 89.582031 209.246094 C 89.070312 209.148438 88.570312 209.007812 88.082031 208.824219 C 87.597656 208.640625 87.128906 208.417969 86.679688 208.152344 C 86.230469 207.886719 85.808594 207.585938 85.410156 207.246094 C 85.011719 206.910156 84.648438 206.539062 84.316406 206.136719 C 83.984375 205.734375 83.6875 205.308594 83.429688 204.855469 C 83.171875 204.402344 82.953125 203.933594 82.777344 203.441406 C 82.601562 202.953125 82.46875 202.449219 82.378906 201.9375 C 82.289062 201.421875 82.242188 200.90625 82.242188 200.382812 L 82.242188 176.183594 C 82.242188 175.664062 82.289062 175.144531 82.378906 174.632812 C 82.46875 174.117188 82.601562 173.617188 82.777344 173.125 C 82.953125 172.636719 83.171875 172.164062 83.429688 171.710938 C 83.6875 171.257812 83.984375 170.832031 84.316406 170.429688 C 84.648438 170.027344 85.011719 169.660156 85.410156 169.320312 C 85.808594 168.980469 86.230469 168.679688 86.679688 168.414062 C 87.128906 168.152344 87.597656 167.925781 88.082031 167.742188 C 88.570312 167.558594 89.070312 167.417969 89.582031 167.324219 L 111.890625 163.105469 C 112.371094 163.019531 112.699219 162.75 112.871094 162.289062 C 113.871094 159.398438 115.035156 156.578125 116.371094 153.824219 C 116.554688 153.414062 116.515625 153.023438 116.257812 152.65625 L 103.421875 133.863281 C 103.125 133.433594 102.871094 132.980469 102.65625 132.507812 C 102.441406 132.03125 102.269531 131.542969 102.136719 131.035156 C 102.007812 130.53125 101.921875 130.019531 101.878906 129.5 C 101.839844 128.980469 101.84375 128.460938 101.890625 127.941406 C 101.941406 127.421875 102.03125 126.914062 102.171875 126.410156 C 102.308594 125.90625 102.488281 125.417969 102.710938 124.949219 C 102.929688 124.476562 103.191406 124.027344 103.492188 123.601562 C 103.792969 123.175781 104.125 122.777344 104.496094 122.40625 L 121.609375 105.292969 C 121.980469 104.921875 122.378906 104.589844 122.804688 104.289062 C 123.230469 103.988281 123.679688 103.730469 124.152344 103.507812 C 124.625 103.285156 125.109375 103.105469 125.613281 102.96875 C 126.117188 102.832031 126.628906 102.738281 127.148438 102.691406 C 127.667969 102.640625 128.1875 102.636719 128.707031 102.679688 C 129.226562 102.722656 129.738281 102.808594 130.242188 102.9375 C 130.746094 103.066406 131.238281 103.238281 131.710938 103.457031 C 132.1875 103.671875 132.640625 103.925781 133.070312 104.21875 L 151.855469 117.054688 C 152.230469 117.316406 152.628906 117.355469 153.046875 117.164062 C 155.800781 115.832031 158.625 114.667969 161.519531 113.664062 C 161.976562 113.492188 162.246094 113.167969 162.328125 112.6875 L 166.542969 90.382812 C 166.640625 89.867188 166.78125 89.367188 166.964844 88.878906 C 167.148438 88.390625 167.371094 87.925781 167.636719 87.476562 C 167.902344 87.027344 168.203125 86.601562 168.542969 86.207031 C 168.878906 85.808594 169.25 85.445312 169.652344 85.109375 C 170.050781 84.777344 170.480469 84.484375 170.933594 84.222656 C 171.386719 83.964844 171.855469 83.746094 172.347656 83.570312 C 172.835938 83.394531 173.339844 83.261719 173.851562 83.171875 C 174.367188 83.082031 174.882812 83.035156 175.40625 83.035156 L 199.589844 83.035156 C 200.113281 83.035156 200.628906 83.082031 201.144531 83.171875 C 201.65625 83.261719 202.160156 83.394531 202.648438 83.570312 C 203.140625 83.746094 203.609375 83.964844 204.0625 84.222656 C 204.515625 84.484375 204.945312 84.777344 205.34375 85.109375 C 205.746094 85.445312 206.117188 85.808594 206.453125 86.207031 C 206.792969 86.601562 207.09375 87.027344 207.359375 87.476562 C 207.625 87.925781 207.847656 88.390625 208.03125 88.878906 C 208.214844 89.367188 208.355469 89.867188 208.453125 90.382812 L 212.667969 112.6875 C 212.75 113.167969 213.023438 113.496094 213.480469 113.667969 C 216.371094 114.667969 219.195312 115.835938 221.949219 117.167969 C 222.371094 117.371094 222.769531 117.332031 223.144531 117.058594 L 241.929688 104.222656 C 242.359375 103.929688 242.8125 103.675781 243.289062 103.460938 C 243.761719 103.242188 244.253906 103.070312 244.757812 102.941406 C 245.261719 102.8125 245.773438 102.726562 246.292969 102.683594 C 246.8125 102.640625 247.332031 102.644531 247.851562 102.695312 C 248.371094 102.742188 248.882812 102.835938 249.386719 102.972656 C 249.890625 103.109375 250.375 103.289062 250.847656 103.511719 C 251.320312 103.734375 251.769531 103.992188 252.195312 104.292969 C 252.621094 104.59375 253.019531 104.925781 253.390625 105.296875 L 270.503906 122.410156 C 270.875 122.78125 271.207031 123.179688 271.507812 123.605469 C 271.808594 124.03125 272.070312 124.480469 272.289062 124.953125 C 272.511719 125.425781 272.691406 125.914062 272.828125 126.414062 C 272.964844 126.917969 273.058594 127.429688 273.109375 127.949219 C 273.15625 128.46875 273.160156 128.988281 273.117188 129.507812 C 273.078125 130.027344 272.992188 130.539062 272.859375 131.042969 C 272.730469 131.546875 272.558594 132.039062 272.34375 132.511719 C 272.128906 132.988281 271.875 133.441406 271.578125 133.871094 L 258.742188 152.65625 C 258.476562 153.035156 258.4375 153.429688 258.628906 153.851562 C 259.964844 156.605469 261.132812 159.425781 262.128906 162.320312 C 262.304688 162.777344 262.632812 163.046875 263.113281 163.128906 L 285.417969 167.34375 C 285.929688 167.441406 286.429688 167.582031 286.917969 167.765625 C 287.402344 167.949219 287.871094 168.175781 288.320312 168.4375 C 288.769531 168.703125 289.191406 169.003906 289.589844 169.34375 C 289.988281 169.683594 290.351562 170.050781 290.683594 170.453125 C 291.015625 170.855469 291.3125 171.28125 291.570312 171.734375 C 291.828125 172.1875 292.046875 172.660156 292.222656 173.148438 C 292.398438 173.640625 292.53125 174.140625 292.621094 174.65625 C 292.710938 175.167969 292.757812 175.6875 292.757812 176.207031 L 292.757812 200.394531 C 292.757812 200.917969 292.710938 201.433594 292.621094 201.949219 C 292.53125 202.460938 292.398438 202.964844 292.222656 203.453125 C 292.046875 203.945312 291.828125 204.414062 291.570312 204.867188 C 291.3125 205.320312 291.015625 205.746094 290.683594 206.148438 C 290.351562 206.550781 289.988281 206.921875 289.589844 207.257812 C 289.191406 207.597656 288.769531 207.898438 288.320312 208.164062 C 287.871094 208.429688 287.402344 208.652344 286.917969 208.835938 C 286.429688 209.019531 285.929688 209.160156 285.417969 209.257812 L 263.109375 213.472656 C 262.628906 213.558594 262.300781 213.832031 262.128906 214.289062 C 261.132812 217.183594 259.964844 220.003906 258.628906 222.753906 C 258.4375 223.171875 258.476562 223.566406 258.742188 223.941406 L 271.578125 242.734375 C 271.875 243.164062 272.128906 243.617188 272.34375 244.09375 C 272.558594 244.566406 272.730469 245.058594 272.863281 245.5625 C 272.992188 246.066406 273.078125 246.578125 273.121094 247.097656 C 273.160156 247.617188 273.15625 248.136719 273.109375 248.65625 C 273.058594 249.175781 272.96875 249.6875 272.828125 250.1875 C 272.691406 250.691406 272.511719 251.179688 272.289062 251.652344 C 272.070312 252.121094 271.808594 252.570312 271.507812 253 C 271.207031 253.425781 270.875 253.824219 270.503906 254.191406 L 253.390625 271.308594 C 253.019531 271.675781 252.625 272.011719 252.195312 272.308594 C 251.769531 272.609375 251.320312 272.871094 250.847656 273.09375 C 250.375 273.3125 249.890625 273.492188 249.386719 273.632812 C 248.882812 273.769531 248.371094 273.863281 247.851562 273.910156 C 247.332031 273.957031 246.8125 273.960938 246.292969 273.921875 C 245.773438 273.878906 245.261719 273.792969 244.757812 273.664062 C 244.253906 273.53125 243.761719 273.359375 243.289062 273.144531 C 242.8125 272.929688 242.359375 272.675781 241.929688 272.378906 L 223.144531 259.542969 C 222.765625 259.277344 222.371094 259.238281 221.949219 259.433594 C 219.195312 260.765625 216.371094 261.933594 213.476562 262.9375 C 213.019531 263.105469 212.75 263.429688 212.667969 263.910156 L 208.453125 286.21875 C 208.355469 286.730469 208.214844 287.230469 208.03125 287.71875 C 207.847656 288.203125 207.621094 288.671875 207.355469 289.121094 C 207.09375 289.570312 206.789062 289.992188 206.453125 290.390625 C 206.113281 290.785156 205.746094 291.148438 205.34375 291.484375 C 204.941406 291.816406 204.515625 292.109375 204.0625 292.367188 C 203.609375 292.625 203.136719 292.84375 202.648438 293.019531 C 202.15625 293.199219 201.65625 293.332031 201.140625 293.421875 C 200.628906 293.507812 200.113281 293.554688 199.589844 293.554688 Z M 152.566406 251.527344 C 153.933594 251.523438 155.230469 251.820312 156.457031 252.417969 C 158.9375 253.621094 161.476562 254.671875 164.082031 255.574219 C 164.832031 255.839844 165.535156 256.199219 166.191406 256.648438 C 166.847656 257.097656 167.433594 257.625 167.953125 258.230469 C 168.46875 258.832031 168.902344 259.492188 169.246094 260.210938 C 169.585938 260.929688 169.832031 261.679688 169.980469 262.460938 L 174.1875 284.75 C 174.242188 285.042969 174.386719 285.285156 174.613281 285.476562 C 174.84375 285.664062 175.109375 285.761719 175.40625 285.757812 L 199.589844 285.757812 C 199.886719 285.761719 200.152344 285.667969 200.378906 285.476562 C 200.609375 285.289062 200.753906 285.046875 200.808594 284.753906 L 205.023438 262.445312 C 205.171875 261.664062 205.417969 260.917969 205.761719 260.199219 C 206.105469 259.484375 206.535156 258.824219 207.054688 258.222656 C 207.570312 257.617188 208.15625 257.09375 208.8125 256.644531 C 209.46875 256.195312 210.171875 255.839844 210.921875 255.574219 C 213.527344 254.667969 216.070312 253.613281 218.554688 252.410156 C 219.265625 252.066406 220.011719 251.824219 220.785156 251.675781 C 221.5625 251.53125 222.34375 251.488281 223.132812 251.546875 C 223.921875 251.609375 224.6875 251.769531 225.433594 252.03125 C 226.179688 252.292969 226.875 252.648438 227.527344 253.09375 L 246.3125 265.929688 C 246.558594 266.09375 246.824219 266.160156 247.117188 266.132812 C 247.410156 266.105469 247.660156 265.992188 247.871094 265.785156 L 264.984375 248.671875 C 265.191406 248.460938 265.308594 248.210938 265.335938 247.917969 C 265.367188 247.625 265.296875 247.359375 265.132812 247.113281 L 252.296875 228.324219 C 251.851562 227.675781 251.496094 226.976562 251.234375 226.230469 C 250.972656 225.484375 250.8125 224.71875 250.75 223.929688 C 250.691406 223.144531 250.734375 222.359375 250.878906 221.585938 C 251.027344 220.808594 251.269531 220.0625 251.613281 219.351562 C 252.816406 216.871094 253.871094 214.332031 254.777344 211.726562 C 255.042969 210.976562 255.402344 210.277344 255.851562 209.621094 C 256.300781 208.964844 256.828125 208.378906 257.429688 207.863281 C 258.035156 207.34375 258.695312 206.914062 259.410156 206.570312 C 260.125 206.226562 260.875 205.980469 261.65625 205.832031 L 283.972656 201.589844 C 284.265625 201.535156 284.507812 201.390625 284.695312 201.164062 C 284.882812 200.933594 284.976562 200.667969 284.976562 200.371094 L 284.976562 176.183594 C 284.976562 175.886719 284.882812 175.621094 284.695312 175.394531 C 284.507812 175.164062 284.265625 175.023438 283.972656 174.964844 L 261.683594 170.75 C 260.902344 170.601562 260.152344 170.359375 259.433594 170.015625 C 258.71875 169.671875 258.058594 169.238281 257.453125 168.722656 C 256.847656 168.207031 256.320312 167.621094 255.871094 166.964844 C 255.421875 166.308594 255.0625 165.605469 254.796875 164.855469 C 253.894531 162.25 252.835938 159.707031 251.632812 157.226562 C 251.289062 156.515625 251.046875 155.769531 250.898438 154.992188 C 250.753906 154.21875 250.710938 153.433594 250.769531 152.648438 C 250.832031 151.859375 250.992188 151.09375 251.253906 150.347656 C 251.515625 149.601562 251.871094 148.902344 252.316406 148.25 L 265.152344 129.460938 C 265.316406 129.214844 265.386719 128.949219 265.355469 128.65625 C 265.328125 128.363281 265.210938 128.113281 265.003906 127.90625 L 247.890625 110.789062 C 247.679688 110.582031 247.429688 110.464844 247.136719 110.4375 C 246.84375 110.410156 246.578125 110.476562 246.332031 110.640625 L 227.546875 123.476562 C 226.894531 123.921875 226.199219 124.277344 225.453125 124.539062 C 224.707031 124.800781 223.941406 124.960938 223.152344 125.023438 C 222.363281 125.082031 221.582031 125.039062 220.804688 124.894531 C 220.03125 124.75 219.285156 124.503906 218.574219 124.164062 C 216.09375 122.957031 213.546875 121.902344 210.941406 121 C 210.191406 120.734375 209.488281 120.378906 208.832031 119.925781 C 208.175781 119.476562 207.589844 118.949219 207.070312 118.347656 C 206.554688 117.742188 206.121094 117.082031 205.777344 116.363281 C 205.433594 115.644531 205.191406 114.894531 205.042969 114.113281 L 200.808594 91.804688 C 200.753906 91.511719 200.609375 91.269531 200.382812 91.082031 C 200.152344 90.890625 199.886719 90.796875 199.589844 90.796875 L 175.40625 90.796875 C 175.109375 90.796875 174.84375 90.890625 174.617188 91.078125 C 174.386719 91.269531 174.242188 91.507812 174.1875 91.800781 L 169.972656 114.09375 C 169.824219 114.878906 169.582031 115.625 169.238281 116.34375 C 168.894531 117.0625 168.464844 117.722656 167.949219 118.328125 C 167.429688 118.933594 166.84375 119.457031 166.1875 119.910156 C 165.53125 120.359375 164.828125 120.714844 164.078125 120.980469 C 161.472656 121.886719 158.925781 122.941406 156.445312 124.148438 C 155.734375 124.488281 154.988281 124.730469 154.210938 124.875 C 153.4375 125.023438 152.65625 125.0625 151.867188 125.003906 C 151.078125 124.945312 150.3125 124.785156 149.566406 124.523438 C 148.824219 124.261719 148.125 123.90625 147.472656 123.460938 L 128.6875 110.625 C 128.441406 110.460938 128.175781 110.394531 127.882812 110.421875 C 127.589844 110.445312 127.339844 110.5625 127.128906 110.769531 L 110.015625 127.886719 C 109.808594 128.09375 109.691406 128.34375 109.664062 128.636719 C 109.632812 128.929688 109.703125 129.199219 109.867188 129.441406 L 122.703125 148.230469 C 123.148438 148.882812 123.503906 149.582031 123.765625 150.324219 C 124.027344 151.070312 124.1875 151.835938 124.25 152.625 C 124.308594 153.414062 124.265625 154.195312 124.121094 154.972656 C 123.972656 155.746094 123.730469 156.492188 123.386719 157.203125 C 122.183594 159.683594 121.128906 162.226562 120.222656 164.828125 C 119.957031 165.578125 119.601562 166.28125 119.152344 166.9375 C 118.703125 167.59375 118.175781 168.179688 117.570312 168.699219 C 116.96875 169.214844 116.308594 169.648438 115.589844 169.992188 C 114.875 170.335938 114.125 170.582031 113.34375 170.730469 L 91.027344 174.964844 C 90.734375 175.023438 90.492188 175.164062 90.304688 175.394531 C 90.117188 175.621094 90.023438 175.886719 90.023438 176.183594 L 90.023438 200.371094 C 90.023438 200.667969 90.117188 200.933594 90.304688 201.164062 C 90.492188 201.390625 90.734375 201.535156 91.027344 201.589844 L 113.332031 205.804688 C 114.113281 205.953125 114.859375 206.199219 115.578125 206.542969 C 116.292969 206.890625 116.949219 207.320312 117.554688 207.835938 C 118.15625 208.355469 118.683594 208.941406 119.132812 209.59375 C 119.582031 210.25 119.9375 210.953125 120.203125 211.699219 C 121.105469 214.304688 122.164062 216.847656 123.367188 219.328125 C 123.710938 220.039062 123.953125 220.785156 124.101562 221.5625 C 124.246094 222.339844 124.289062 223.121094 124.230469 223.910156 C 124.167969 224.695312 124.007812 225.464844 123.746094 226.210938 C 123.484375 226.957031 123.128906 227.652344 122.683594 228.304688 L 109.847656 247.09375 C 109.683594 247.339844 109.613281 247.605469 109.644531 247.898438 C 109.671875 248.191406 109.789062 248.441406 109.996094 248.652344 L 127.109375 265.769531 C 127.320312 265.972656 127.570312 266.089844 127.863281 266.117188 C 128.15625 266.144531 128.421875 266.078125 128.667969 265.914062 L 147.453125 253.078125 C 148.996094 252.035156 150.703125 251.519531 152.566406 251.527344 Z M 152.566406 251.527344 " fill-opacity="1" fill-rule="nonzero"/><path fill="#000000" d="M 187.5 231.769531 C 186.074219 231.769531 184.65625 231.699219 183.238281 231.558594 C 181.820312 231.417969 180.414062 231.210938 179.015625 230.933594 C 177.617188 230.65625 176.238281 230.308594 174.875 229.894531 C 173.511719 229.480469 172.171875 229 170.855469 228.457031 C 169.542969 227.910156 168.253906 227.304688 167 226.632812 C 165.742188 225.960938 164.523438 225.230469 163.339844 224.4375 C 162.15625 223.644531 161.011719 222.796875 159.910156 221.894531 C 158.808594 220.992188 157.757812 220.035156 156.75 219.027344 C 155.742188 218.019531 154.785156 216.96875 153.882812 215.867188 C 152.980469 214.765625 152.132812 213.621094 151.339844 212.4375 C 150.550781 211.253906 149.820312 210.03125 149.148438 208.777344 C 148.476562 207.519531 147.867188 206.234375 147.324219 204.917969 C 146.777344 203.601562 146.296875 202.261719 145.886719 200.898438 C 145.472656 199.535156 145.125 198.15625 144.847656 196.761719 C 144.570312 195.363281 144.363281 193.957031 144.222656 192.539062 C 144.082031 191.121094 144.011719 189.699219 144.011719 188.273438 C 144.011719 186.851562 144.082031 185.429688 144.222656 184.011719 C 144.363281 182.59375 144.570312 181.1875 144.847656 179.789062 C 145.128906 178.394531 145.472656 177.015625 145.886719 175.652344 C 146.300781 174.289062 146.78125 172.949219 147.324219 171.632812 C 147.871094 170.316406 148.476562 169.03125 149.148438 167.773438 C 149.820312 166.519531 150.550781 165.296875 151.34375 164.113281 C 152.136719 162.929688 152.984375 161.789062 153.886719 160.6875 C 154.789062 159.585938 155.746094 158.53125 156.753906 157.523438 C 157.761719 156.515625 158.8125 155.5625 159.914062 154.65625 C 161.015625 153.753906 162.160156 152.90625 163.34375 152.117188 C 164.527344 151.324219 165.746094 150.59375 167.003906 149.921875 C 168.261719 149.25 169.546875 148.640625 170.863281 148.097656 C 172.179688 147.550781 173.519531 147.074219 174.878906 146.660156 C 176.242188 146.246094 177.625 145.902344 179.019531 145.621094 C 180.417969 145.34375 181.824219 145.136719 183.242188 144.996094 C 184.660156 144.855469 186.082031 144.789062 187.503906 144.789062 C 188.929688 144.789062 190.351562 144.855469 191.769531 144.996094 C 193.183594 145.136719 194.59375 145.34375 195.988281 145.625 C 197.386719 145.902344 198.765625 146.246094 200.128906 146.660156 C 201.492188 147.074219 202.832031 147.554688 204.148438 148.097656 C 205.464844 148.644531 206.75 149.25 208.007812 149.921875 C 209.261719 150.59375 210.480469 151.324219 211.667969 152.117188 C 212.851562 152.910156 213.992188 153.757812 215.09375 154.660156 C 216.195312 155.5625 217.25 156.519531 218.257812 157.527344 C 219.265625 158.53125 220.21875 159.585938 221.121094 160.6875 C 222.027344 161.789062 222.875 162.933594 223.664062 164.117188 C 224.457031 165.300781 225.1875 166.519531 225.859375 167.777344 C 226.53125 169.03125 227.140625 170.320312 227.683594 171.636719 C 228.230469 172.949219 228.707031 174.289062 229.121094 175.652344 C 229.535156 177.015625 229.882812 178.398438 230.160156 179.792969 C 230.4375 181.191406 230.644531 182.597656 230.785156 184.015625 C 230.925781 185.433594 230.996094 186.855469 230.996094 188.277344 C 230.992188 189.703125 230.921875 191.121094 230.78125 192.539062 C 230.640625 193.957031 230.429688 195.363281 230.152344 196.757812 C 229.871094 198.15625 229.523438 199.535156 229.109375 200.898438 C 228.695312 202.261719 228.214844 203.597656 227.671875 204.914062 C 227.125 206.230469 226.515625 207.515625 225.84375 208.769531 C 225.171875 210.027344 224.441406 211.246094 223.648438 212.429688 C 222.855469 213.613281 222.007812 214.753906 221.105469 215.855469 C 220.203125 216.957031 219.246094 218.011719 218.242188 219.015625 C 217.234375 220.023438 216.179688 220.980469 215.078125 221.882812 C 213.976562 222.785156 212.835938 223.632812 211.652344 224.425781 C 210.46875 225.214844 209.25 225.949219 207.992188 226.621094 C 206.738281 227.292969 205.453125 227.898438 204.136719 228.445312 C 202.820312 228.992188 201.480469 229.472656 200.121094 229.886719 C 198.757812 230.300781 197.378906 230.644531 195.980469 230.925781 C 194.585938 231.203125 193.179688 231.414062 191.761719 231.554688 C 190.34375 231.695312 188.925781 231.765625 187.5 231.769531 Z M 187.5 152.566406 C 186.332031 152.566406 185.164062 152.625 184 152.738281 C 182.835938 152.855469 181.679688 153.027344 180.535156 153.253906 C 179.386719 153.484375 178.253906 153.765625 177.132812 154.105469 C 176.015625 154.445312 174.914062 154.839844 173.835938 155.285156 C 172.753906 155.734375 171.699219 156.234375 170.667969 156.785156 C 169.636719 157.335938 168.632812 157.9375 167.660156 158.585938 C 166.6875 159.238281 165.75 159.933594 164.847656 160.675781 C 163.941406 161.417969 163.078125 162.203125 162.25 163.027344 C 161.421875 163.855469 160.640625 164.722656 159.898438 165.625 C 159.15625 166.53125 158.460938 167.46875 157.808594 168.441406 C 157.160156 169.414062 156.558594 170.414062 156.007812 171.445312 C 155.457031 172.476562 154.957031 173.535156 154.511719 174.613281 C 154.0625 175.695312 153.667969 176.796875 153.332031 177.914062 C 152.992188 179.035156 152.707031 180.167969 152.480469 181.3125 C 152.25 182.460938 152.078125 183.617188 151.964844 184.78125 C 151.851562 185.945312 151.792969 187.109375 151.792969 188.28125 C 151.792969 189.449219 151.851562 190.617188 151.964844 191.78125 C 152.082031 192.945312 152.25 194.101562 152.480469 195.246094 C 152.707031 196.394531 152.992188 197.527344 153.332031 198.648438 C 153.671875 199.765625 154.066406 200.867188 154.511719 201.945312 C 154.960938 203.027344 155.460938 204.082031 156.011719 205.113281 C 156.5625 206.144531 157.164062 207.148438 157.8125 208.121094 C 158.460938 209.09375 159.160156 210.03125 159.902344 210.933594 C 160.640625 211.839844 161.425781 212.703125 162.253906 213.53125 C 163.082031 214.359375 163.945312 215.140625 164.851562 215.882812 C 165.753906 216.625 166.691406 217.320312 167.664062 217.972656 C 168.636719 218.621094 169.640625 219.222656 170.671875 219.773438 C 171.703125 220.324219 172.757812 220.824219 173.839844 221.269531 C 174.921875 221.71875 176.019531 222.113281 177.140625 222.453125 C 178.257812 222.789062 179.390625 223.074219 180.539062 223.300781 C 181.6875 223.53125 182.839844 223.703125 184.003906 223.816406 C 185.167969 223.929688 186.335938 223.988281 187.503906 223.988281 C 188.675781 223.988281 189.839844 223.929688 191.003906 223.816406 C 192.167969 223.703125 193.324219 223.53125 194.472656 223.300781 C 195.617188 223.074219 196.753906 222.789062 197.871094 222.449219 C 198.992188 222.109375 200.089844 221.71875 201.171875 221.269531 C 202.25 220.824219 203.308594 220.324219 204.339844 219.773438 C 205.371094 219.21875 206.371094 218.621094 207.34375 217.96875 C 208.316406 217.320312 209.253906 216.625 210.160156 215.882812 C 211.0625 215.140625 211.929688 214.355469 212.753906 213.527344 C 213.582031 212.703125 214.367188 211.835938 215.109375 210.933594 C 215.851562 210.027344 216.546875 209.089844 217.195312 208.117188 C 217.847656 207.144531 218.445312 206.144531 218.996094 205.113281 C 219.550781 204.078125 220.046875 203.023438 220.496094 201.945312 C 220.945312 200.863281 221.335938 199.761719 221.675781 198.644531 C 222.015625 197.523438 222.300781 196.390625 222.527344 195.246094 C 222.757812 194.097656 222.929688 192.941406 223.042969 191.777344 C 223.15625 190.613281 223.214844 189.449219 223.214844 188.277344 C 223.214844 187.109375 223.15625 185.941406 223.039062 184.777344 C 222.921875 183.617188 222.75 182.460938 222.519531 181.3125 C 222.292969 180.167969 222.007812 179.035156 221.667969 177.914062 C 221.328125 176.796875 220.933594 175.699219 220.484375 174.617188 C 220.035156 173.539062 219.535156 172.484375 218.984375 171.453125 C 218.433594 170.421875 217.832031 169.417969 217.183594 168.445312 C 216.53125 167.476562 215.835938 166.539062 215.09375 165.632812 C 214.351562 164.730469 213.566406 163.863281 212.742188 163.039062 C 211.914062 162.210938 211.050781 161.425781 210.144531 160.683594 C 209.242188 159.941406 208.304688 159.246094 207.332031 158.597656 C 206.359375 157.949219 205.359375 157.347656 204.328125 156.796875 C 203.296875 156.242188 202.242188 155.742188 201.160156 155.296875 C 200.082031 154.847656 198.980469 154.453125 197.863281 154.113281 C 196.742188 153.773438 195.609375 153.488281 194.464844 153.261719 C 193.316406 153.03125 192.164062 152.859375 191 152.742188 C 189.835938 152.628906 188.667969 152.570312 187.5 152.566406 Z M 187.5 152.566406 " fill-opacity="1" fill-rule="nonzero"/><path fill="#000000" d="M 187.5 90.78125 C 186.984375 90.78125 186.488281 90.683594 186.011719 90.484375 C 185.535156 90.289062 185.113281 90.007812 184.75 89.640625 C 184.382812 89.277344 184.101562 88.855469 183.90625 88.378906 C 183.707031 87.902344 183.609375 87.40625 183.609375 86.890625 L 183.609375 37.34375 C 183.609375 36.476562 183.523438 35.617188 183.355469 34.765625 C 183.1875 33.914062 182.933594 33.085938 182.601562 32.28125 C 182.269531 31.480469 181.863281 30.71875 181.382812 29.996094 C 180.898438 29.273438 180.351562 28.605469 179.734375 27.992188 C 179.121094 27.378906 178.453125 26.828125 177.730469 26.347656 C 177.007812 25.863281 176.246094 25.457031 175.445312 25.125 C 174.644531 24.792969 173.816406 24.542969 172.964844 24.371094 C 172.113281 24.203125 171.253906 24.117188 170.382812 24.117188 L 83.492188 24.117188 C 82.976562 24.117188 82.480469 24.019531 82.003906 23.820312 C 81.527344 23.625 81.105469 23.34375 80.742188 22.980469 C 80.375 22.613281 80.09375 22.195312 79.898438 21.71875 C 79.699219 21.242188 79.601562 20.742188 79.601562 20.226562 C 79.601562 19.710938 79.699219 19.214844 79.898438 18.738281 C 80.09375 18.261719 80.375 17.84375 80.742188 17.476562 C 81.105469 17.113281 81.527344 16.832031 82.003906 16.632812 C 82.480469 16.4375 82.976562 16.339844 83.492188 16.339844 L 170.382812 16.339844 C 171.070312 16.339844 171.757812 16.375 172.441406 16.441406 C 173.125 16.507812 173.804688 16.609375 174.480469 16.746094 C 175.15625 16.878906 175.820312 17.046875 176.480469 17.246094 C 177.136719 17.445312 177.785156 17.679688 178.417969 17.941406 C 179.054688 18.207031 179.675781 18.5 180.28125 18.824219 C 180.890625 19.148438 181.476562 19.503906 182.050781 19.882812 C 182.621094 20.265625 183.171875 20.675781 183.703125 21.113281 C 184.238281 21.546875 184.746094 22.011719 185.230469 22.496094 C 185.71875 22.984375 186.179688 23.492188 186.617188 24.023438 C 187.050781 24.554688 187.460938 25.105469 187.84375 25.679688 C 188.226562 26.25 188.578125 26.839844 188.902344 27.445312 C 189.226562 28.050781 189.523438 28.671875 189.785156 29.308594 C 190.050781 29.945312 190.28125 30.589844 190.480469 31.25 C 190.679688 31.90625 190.847656 32.574219 190.984375 33.246094 C 191.117188 33.921875 191.21875 34.601562 191.289062 35.285156 C 191.355469 35.96875 191.390625 36.65625 191.390625 37.34375 L 191.390625 86.890625 C 191.390625 87.40625 191.292969 87.902344 191.09375 88.378906 C 190.894531 88.855469 190.617188 89.277344 190.25 89.640625 C 189.886719 90.007812 189.464844 90.289062 188.988281 90.484375 C 188.511719 90.683594 188.015625 90.78125 187.5 90.78125 Z M 187.5 90.78125 " fill-opacity="1" fill-rule="nonzero"/><path fill="#000000" d="M 68.71875 38.902344 C 68.105469 38.902344 67.496094 38.871094 66.886719 38.808594 C 66.277344 38.75 65.675781 38.660156 65.074219 38.542969 C 64.476562 38.421875 63.882812 38.273438 63.296875 38.097656 C 62.710938 37.917969 62.136719 37.714844 61.570312 37.480469 C 61.007812 37.246094 60.453125 36.984375 59.914062 36.695312 C 59.375 36.40625 58.851562 36.09375 58.34375 35.753906 C 57.835938 35.414062 57.34375 35.050781 56.871094 34.660156 C 56.398438 34.273438 55.945312 33.863281 55.515625 33.429688 C 55.082031 33 54.671875 32.546875 54.285156 32.074219 C 53.894531 31.601562 53.53125 31.109375 53.191406 30.601562 C 52.851562 30.09375 52.539062 29.570312 52.25 29.03125 C 51.960938 28.492188 51.699219 27.9375 51.464844 27.375 C 51.234375 26.808594 51.027344 26.234375 50.847656 25.648438 C 50.671875 25.0625 50.523438 24.472656 50.402344 23.871094 C 50.285156 23.269531 50.195312 22.667969 50.136719 22.058594 C 50.074219 21.449219 50.046875 20.839844 50.046875 20.226562 C 50.046875 19.617188 50.074219 19.007812 50.136719 18.398438 C 50.195312 17.789062 50.285156 17.183594 50.402344 16.585938 C 50.523438 15.984375 50.671875 15.394531 50.847656 14.808594 C 51.027344 14.222656 51.234375 13.648438 51.464844 13.082031 C 51.699219 12.519531 51.960938 11.964844 52.25 11.425781 C 52.539062 10.886719 52.851562 10.363281 53.191406 9.855469 C 53.53125 9.347656 53.894531 8.855469 54.285156 8.382812 C 54.671875 7.910156 55.082031 7.457031 55.515625 7.023438 C 55.945312 6.59375 56.398438 6.183594 56.871094 5.792969 C 57.34375 5.40625 57.835938 5.042969 58.34375 4.703125 C 58.851562 4.363281 59.375 4.050781 59.914062 3.761719 C 60.453125 3.472656 61.007812 3.210938 61.570312 2.976562 C 62.136719 2.742188 62.710938 2.539062 63.296875 2.359375 C 63.882812 2.183594 64.476562 2.035156 65.074219 1.914062 C 65.675781 1.796875 66.277344 1.707031 66.886719 1.644531 C 67.496094 1.585938 68.105469 1.554688 68.71875 1.554688 C 69.328125 1.554688 69.9375 1.585938 70.546875 1.644531 C 71.15625 1.707031 71.761719 1.796875 72.359375 1.914062 C 72.960938 2.035156 73.550781 2.183594 74.136719 2.359375 C 74.722656 2.539062 75.296875 2.742188 75.863281 2.976562 C 76.429688 3.210938 76.980469 3.472656 77.519531 3.761719 C 78.058594 4.050781 78.582031 4.363281 79.089844 4.703125 C 79.601562 5.042969 80.089844 5.40625 80.5625 5.792969 C 81.035156 6.183594 81.488281 6.59375 81.921875 7.023438 C 82.351562 7.457031 82.761719 7.910156 83.152344 8.382812 C 83.539062 8.855469 83.902344 9.347656 84.242188 9.855469 C 84.582031 10.363281 84.898438 10.886719 85.183594 11.425781 C 85.472656 11.964844 85.734375 12.519531 85.96875 13.082031 C 86.203125 13.648438 86.410156 14.222656 86.585938 14.808594 C 86.761719 15.394531 86.910156 15.984375 87.03125 16.585938 C 87.148438 17.183594 87.238281 17.789062 87.300781 18.398438 C 87.359375 19.007812 87.390625 19.617188 87.390625 20.226562 C 87.390625 20.839844 87.359375 21.449219 87.296875 22.058594 C 87.238281 22.664062 87.144531 23.269531 87.027344 23.867188 C 86.90625 24.46875 86.757812 25.0625 86.578125 25.644531 C 86.402344 26.230469 86.195312 26.804688 85.960938 27.371094 C 85.726562 27.933594 85.464844 28.484375 85.175781 29.023438 C 84.886719 29.5625 84.574219 30.085938 84.234375 30.59375 C 83.894531 31.105469 83.53125 31.59375 83.144531 32.066406 C 82.753906 32.539062 82.34375 32.992188 81.914062 33.421875 C 81.480469 33.855469 81.027344 34.265625 80.554688 34.652344 C 80.082031 35.042969 79.59375 35.40625 79.085938 35.746094 C 78.578125 36.085938 78.054688 36.398438 77.515625 36.6875 C 76.976562 36.976562 76.421875 37.238281 75.859375 37.472656 C 75.292969 37.707031 74.71875 37.914062 74.136719 38.089844 C 73.550781 38.269531 72.957031 38.417969 72.359375 38.539062 C 71.757812 38.65625 71.15625 38.746094 70.546875 38.808594 C 69.9375 38.867188 69.328125 38.898438 68.71875 38.902344 Z M 68.71875 9.335938 C 68.003906 9.335938 67.292969 9.40625 66.59375 9.546875 C 65.890625 9.683594 65.210938 9.890625 64.550781 10.164062 C 63.886719 10.4375 63.261719 10.773438 62.667969 11.171875 C 62.070312 11.570312 61.519531 12.019531 61.015625 12.527344 C 60.511719 13.03125 60.058594 13.582031 59.660156 14.175781 C 59.265625 14.773438 58.929688 15.398438 58.65625 16.058594 C 58.382812 16.722656 58.175781 17.402344 58.035156 18.101562 C 57.894531 18.804688 57.824219 19.511719 57.824219 20.226562 C 57.824219 20.945312 57.894531 21.652344 58.035156 22.351562 C 58.175781 23.054688 58.382812 23.734375 58.65625 24.394531 C 58.929688 25.058594 59.265625 25.683594 59.660156 26.28125 C 60.058594 26.875 60.511719 27.425781 61.015625 27.929688 C 61.519531 28.4375 62.070312 28.886719 62.667969 29.285156 C 63.261719 29.683594 63.886719 30.015625 64.550781 30.292969 C 65.210938 30.566406 65.890625 30.773438 66.59375 30.910156 C 67.292969 31.050781 68.003906 31.121094 68.71875 31.121094 C 69.433594 31.121094 70.140625 31.050781 70.84375 30.910156 C 71.542969 30.773438 72.226562 30.566406 72.886719 30.292969 C 73.546875 30.015625 74.175781 29.683594 74.769531 29.285156 C 75.363281 28.886719 75.914062 28.4375 76.417969 27.929688 C 76.925781 27.425781 77.375 26.875 77.773438 26.28125 C 78.171875 25.683594 78.507812 25.058594 78.78125 24.394531 C 79.054688 23.734375 79.261719 23.054688 79.402344 22.351562 C 79.539062 21.652344 79.609375 20.945312 79.609375 20.226562 C 79.609375 19.511719 79.539062 18.804688 79.398438 18.105469 C 79.257812 17.402344 79.050781 16.722656 78.777344 16.0625 C 78.5 15.402344 78.164062 14.777344 77.769531 14.179688 C 77.371094 13.585938 76.917969 13.039062 76.414062 12.53125 C 75.910156 12.027344 75.359375 11.574219 74.765625 11.175781 C 74.171875 10.78125 73.542969 10.445312 72.882812 10.171875 C 72.222656 9.894531 71.542969 9.6875 70.839844 9.546875 C 70.140625 9.410156 69.433594 9.335938 68.71875 9.335938 Z M 68.71875 9.335938 " fill-opacity="1" fill-rule="nonzero"/><path fill="#000000" d="M 291.507812 360.21875 L 204.617188 360.21875 C 203.929688 360.21875 203.242188 360.183594 202.558594 360.113281 C 201.875 360.046875 201.195312 359.945312 200.519531 359.8125 C 199.84375 359.675781 199.179688 359.507812 198.519531 359.308594 C 197.863281 359.109375 197.214844 358.878906 196.582031 358.613281 C 195.945312 358.351562 195.324219 358.054688 194.71875 357.730469 C 194.109375 357.40625 193.523438 357.054688 192.949219 356.671875 C 192.378906 356.289062 191.828125 355.878906 191.296875 355.445312 C 190.761719 355.007812 190.253906 354.546875 189.769531 354.058594 C 189.28125 353.574219 188.820312 353.0625 188.382812 352.53125 C 187.949219 352 187.539062 351.449219 187.15625 350.878906 C 186.773438 350.304688 186.421875 349.714844 186.097656 349.109375 C 185.773438 348.503906 185.476562 347.882812 185.214844 347.246094 C 184.949219 346.613281 184.71875 345.964844 184.519531 345.308594 C 184.320312 344.648438 184.152344 343.984375 184.015625 343.308594 C 183.882812 342.632812 183.78125 341.953125 183.710938 341.269531 C 183.644531 340.585938 183.609375 339.898438 183.609375 339.210938 L 183.609375 289.664062 C 183.609375 289.148438 183.707031 288.652344 183.90625 288.175781 C 184.101562 287.699219 184.382812 287.277344 184.75 286.914062 C 185.113281 286.546875 185.535156 286.265625 186.011719 286.070312 C 186.488281 285.871094 186.984375 285.773438 187.5 285.773438 C 188.015625 285.773438 188.511719 285.871094 188.988281 286.070312 C 189.464844 286.269531 189.886719 286.546875 190.25 286.914062 C 190.617188 287.277344 190.894531 287.699219 191.09375 288.175781 C 191.292969 288.652344 191.390625 289.148438 191.390625 289.664062 L 191.390625 339.210938 C 191.390625 340.078125 191.476562 340.941406 191.644531 341.792969 C 191.8125 342.644531 192.0625 343.46875 192.398438 344.273438 C 192.730469 345.074219 193.136719 345.835938 193.617188 346.558594 C 194.101562 347.28125 194.648438 347.949219 195.265625 348.5625 C 195.878906 349.179688 196.546875 349.726562 197.269531 350.207031 C 197.988281 350.691406 198.753906 351.097656 199.554688 351.429688 C 200.355469 351.761719 201.183594 352.015625 202.035156 352.183594 C 202.886719 352.351562 203.746094 352.4375 204.617188 352.4375 L 291.507812 352.4375 C 292.023438 352.4375 292.519531 352.535156 292.996094 352.734375 C 293.472656 352.929688 293.894531 353.210938 294.257812 353.578125 C 294.625 353.941406 294.90625 354.363281 295.101562 354.839844 C 295.300781 355.316406 295.398438 355.8125 295.398438 356.328125 C 295.398438 356.84375 295.300781 357.339844 295.101562 357.816406 C 294.90625 358.292969 294.625 358.714844 294.257812 359.078125 C 293.894531 359.441406 293.472656 359.722656 292.996094 359.921875 C 292.519531 360.117188 292.023438 360.21875 291.507812 360.21875 Z M 291.507812 360.21875 " fill-opacity="1" fill-rule="nonzero"/><path fill="#000000" d="M 306.28125 375 C 305.671875 375 305.0625 374.96875 304.453125 374.910156 C 303.84375 374.851562 303.238281 374.761719 302.640625 374.640625 C 302.039062 374.523438 301.449219 374.375 300.863281 374.195312 C 300.277344 374.019531 299.703125 373.8125 299.136719 373.578125 C 298.570312 373.34375 298.019531 373.082031 297.480469 372.796875 C 296.941406 372.507812 296.417969 372.191406 295.910156 371.851562 C 295.398438 371.511719 294.910156 371.148438 294.4375 370.761719 C 293.964844 370.375 293.511719 369.964844 293.078125 369.53125 C 292.648438 369.097656 292.238281 368.644531 291.847656 368.171875 C 291.460938 367.699219 291.097656 367.210938 290.757812 366.703125 C 290.417969 366.191406 290.101562 365.667969 289.816406 365.128906 C 289.527344 364.589844 289.265625 364.039062 289.03125 363.472656 C 288.796875 362.910156 288.589844 362.332031 288.414062 361.746094 C 288.238281 361.164062 288.089844 360.570312 287.96875 359.96875 C 287.851562 359.371094 287.761719 358.765625 287.699219 358.15625 C 287.640625 357.550781 287.609375 356.9375 287.609375 356.328125 C 287.609375 355.714844 287.640625 355.105469 287.699219 354.496094 C 287.761719 353.890625 287.851562 353.285156 287.96875 352.683594 C 288.089844 352.085938 288.238281 351.492188 288.414062 350.90625 C 288.589844 350.324219 288.796875 349.746094 289.03125 349.183594 C 289.265625 348.617188 289.527344 348.066406 289.816406 347.527344 C 290.101562 346.988281 290.417969 346.460938 290.757812 345.953125 C 291.097656 345.445312 291.460938 344.953125 291.847656 344.480469 C 292.238281 344.007812 292.648438 343.558594 293.078125 343.125 C 293.511719 342.691406 293.964844 342.28125 294.4375 341.894531 C 294.910156 341.507812 295.398438 341.140625 295.910156 340.800781 C 296.417969 340.460938 296.941406 340.148438 297.480469 339.859375 C 298.019531 339.570312 298.570312 339.3125 299.136719 339.078125 C 299.703125 338.84375 300.277344 338.636719 300.863281 338.460938 C 301.449219 338.28125 302.039062 338.132812 302.640625 338.015625 C 303.238281 337.894531 303.84375 337.804688 304.453125 337.746094 C 305.0625 337.683594 305.671875 337.65625 306.28125 337.65625 C 306.894531 337.65625 307.503906 337.683594 308.113281 337.746094 C 308.722656 337.804688 309.324219 337.894531 309.925781 338.015625 C 310.523438 338.132812 311.117188 338.28125 311.703125 338.460938 C 312.289062 338.636719 312.863281 338.84375 313.429688 339.078125 C 313.992188 339.3125 314.546875 339.570312 315.085938 339.859375 C 315.625 340.148438 316.148438 340.460938 316.65625 340.800781 C 317.164062 341.140625 317.65625 341.507812 318.128906 341.894531 C 318.601562 342.28125 319.054688 342.691406 319.484375 343.125 C 319.917969 343.558594 320.328125 344.007812 320.714844 344.480469 C 321.105469 344.953125 321.46875 345.445312 321.808594 345.953125 C 322.148438 346.460938 322.460938 346.988281 322.75 347.527344 C 323.039062 348.066406 323.300781 348.617188 323.535156 349.183594 C 323.765625 349.746094 323.972656 350.324219 324.152344 350.90625 C 324.328125 351.492188 324.476562 352.085938 324.597656 352.683594 C 324.714844 353.285156 324.804688 353.890625 324.863281 354.496094 C 324.925781 355.105469 324.953125 355.714844 324.953125 356.328125 C 324.953125 356.9375 324.921875 357.546875 324.863281 358.15625 C 324.800781 358.765625 324.710938 359.367188 324.589844 359.96875 C 324.46875 360.566406 324.320312 361.160156 324.144531 361.746094 C 323.964844 362.328125 323.757812 362.902344 323.523438 363.46875 C 323.289062 364.03125 323.027344 364.585938 322.742188 365.125 C 322.453125 365.664062 322.136719 366.1875 321.796875 366.695312 C 321.457031 367.203125 321.09375 367.691406 320.707031 368.164062 C 320.320312 368.636719 319.910156 369.089844 319.476562 369.523438 C 319.042969 369.953125 318.59375 370.363281 318.121094 370.753906 C 317.648438 371.140625 317.15625 371.503906 316.648438 371.84375 C 316.140625 372.183594 315.617188 372.496094 315.078125 372.785156 C 314.539062 373.074219 313.988281 373.335938 313.421875 373.570312 C 312.859375 373.804688 312.285156 374.011719 311.699219 374.1875 C 311.113281 374.367188 310.523438 374.515625 309.921875 374.636719 C 309.324219 374.757812 308.71875 374.847656 308.113281 374.90625 C 307.503906 374.96875 306.894531 375 306.28125 375 Z M 306.28125 345.4375 C 305.566406 345.4375 304.859375 345.503906 304.15625 345.644531 C 303.457031 345.785156 302.773438 345.992188 302.113281 346.265625 C 301.453125 346.539062 300.824219 346.875 300.230469 347.269531 C 299.636719 347.667969 299.085938 348.121094 298.582031 348.625 C 298.074219 349.132812 297.625 349.683594 297.226562 350.277344 C 296.828125 350.871094 296.492188 351.5 296.21875 352.160156 C 295.945312 352.820312 295.738281 353.5 295.597656 354.203125 C 295.460938 354.902344 295.390625 355.613281 295.390625 356.328125 C 295.390625 357.042969 295.460938 357.75 295.597656 358.453125 C 295.738281 359.152344 295.945312 359.835938 296.21875 360.496094 C 296.492188 361.15625 296.828125 361.785156 297.226562 362.378906 C 297.625 362.972656 298.074219 363.523438 298.582031 364.03125 C 299.085938 364.535156 299.636719 364.988281 300.230469 365.382812 C 300.824219 365.78125 301.453125 366.117188 302.113281 366.390625 C 302.773438 366.664062 303.457031 366.871094 304.15625 367.011719 C 304.859375 367.148438 305.566406 367.21875 306.28125 367.21875 C 306.996094 367.21875 307.707031 367.148438 308.40625 367.011719 C 309.109375 366.871094 309.789062 366.664062 310.449219 366.390625 C 311.113281 366.117188 311.738281 365.78125 312.332031 365.382812 C 312.929688 364.988281 313.480469 364.535156 313.984375 364.03125 C 314.488281 363.523438 314.941406 362.972656 315.339844 362.378906 C 315.734375 361.785156 316.070312 361.15625 316.34375 360.496094 C 316.617188 359.835938 316.824219 359.152344 316.964844 358.453125 C 317.105469 357.75 317.175781 357.042969 317.175781 356.328125 C 317.175781 355.613281 317.105469 354.902344 316.964844 354.203125 C 316.824219 353.5 316.617188 352.820312 316.34375 352.160156 C 316.070312 351.5 315.734375 350.871094 315.339844 350.277344 C 314.941406 349.683594 314.488281 349.132812 313.984375 348.625 C 313.480469 348.121094 312.929688 347.667969 312.332031 347.269531 C 311.738281 346.875 311.113281 346.539062 310.449219 346.265625 C 309.789062 345.992188 309.109375 345.785156 308.40625 345.644531 C 307.707031 345.503906 306.996094 345.4375 306.28125 345.4375 Z M 306.28125 345.4375 " fill-opacity="1" fill-rule="nonzero"/><path fill="#000000" d="M 19.449219 296.175781 C 18.933594 296.175781 18.4375 296.078125 17.960938 295.878906 C 17.484375 295.683594 17.0625 295.402344 16.699219 295.035156 C 16.335938 294.671875 16.054688 294.25 15.855469 293.773438 C 15.660156 293.296875 15.558594 292.800781 15.558594 292.285156 L 15.558594 205.394531 C 15.5625 204.707031 15.59375 204.019531 15.664062 203.335938 C 15.730469 202.652344 15.832031 201.972656 15.96875 201.296875 C 16.101562 200.621094 16.269531 199.957031 16.46875 199.296875 C 16.667969 198.640625 16.902344 197.992188 17.164062 197.359375 C 17.429688 196.722656 17.722656 196.101562 18.046875 195.496094 C 18.371094 194.890625 18.722656 194.300781 19.105469 193.726562 C 19.488281 193.15625 19.898438 192.605469 20.335938 192.074219 C 20.769531 191.542969 21.230469 191.03125 21.71875 190.546875 C 22.203125 190.058594 22.714844 189.597656 23.246094 189.164062 C 23.777344 188.726562 24.328125 188.316406 24.902344 187.933594 C 25.472656 187.550781 26.0625 187.199219 26.667969 186.875 C 27.273438 186.550781 27.894531 186.253906 28.53125 185.992188 C 29.167969 185.730469 29.8125 185.496094 30.472656 185.296875 C 31.128906 185.097656 31.796875 184.929688 32.46875 184.792969 C 33.144531 184.660156 33.824219 184.558594 34.507812 184.492188 C 35.191406 184.421875 35.878906 184.386719 36.566406 184.386719 L 86.117188 184.386719 C 86.632812 184.386719 87.128906 184.488281 87.605469 184.683594 C 88.082031 184.882812 88.503906 185.164062 88.867188 185.527344 C 89.234375 185.890625 89.515625 186.3125 89.710938 186.789062 C 89.910156 187.265625 90.007812 187.761719 90.007812 188.277344 C 90.007812 188.792969 89.910156 189.289062 89.710938 189.765625 C 89.515625 190.242188 89.234375 190.664062 88.867188 191.027344 C 88.503906 191.394531 88.082031 191.675781 87.605469 191.871094 C 87.128906 192.070312 86.632812 192.167969 86.117188 192.167969 L 36.566406 192.167969 C 35.699219 192.167969 34.835938 192.253906 33.984375 192.421875 C 33.132812 192.589844 32.308594 192.84375 31.503906 193.175781 C 30.703125 193.507812 29.941406 193.914062 29.21875 194.398438 C 28.496094 194.878906 27.828125 195.429688 27.214844 196.042969 C 26.601562 196.65625 26.050781 197.324219 25.570312 198.046875 C 25.085938 198.769531 24.679688 199.53125 24.347656 200.332031 C 24.015625 201.136719 23.765625 201.960938 23.59375 202.8125 C 23.425781 203.664062 23.339844 204.527344 23.339844 205.394531 L 23.339844 292.285156 C 23.339844 292.800781 23.242188 293.296875 23.042969 293.773438 C 22.847656 294.25 22.566406 294.671875 22.199219 295.035156 C 21.835938 295.402344 21.414062 295.683594 20.9375 295.878906 C 20.460938 296.078125 19.964844 296.175781 19.449219 296.175781 Z M 19.449219 296.175781 " fill-opacity="1" fill-rule="nonzero"/><path fill="#000000" d="M 19.449219 325.742188 C 18.839844 325.742188 18.230469 325.710938 17.621094 325.652344 C 17.011719 325.589844 16.40625 325.5 15.808594 325.382812 C 15.207031 325.261719 14.613281 325.113281 14.03125 324.9375 C 13.445312 324.757812 12.871094 324.554688 12.304688 324.320312 C 11.738281 324.085938 11.1875 323.824219 10.648438 323.535156 C 10.109375 323.246094 9.585938 322.933594 9.078125 322.59375 C 8.566406 322.253906 8.078125 321.890625 7.605469 321.503906 C 7.132812 321.113281 6.679688 320.703125 6.246094 320.269531 C 5.816406 319.839844 5.40625 319.386719 5.015625 318.914062 C 4.628906 318.441406 4.265625 317.949219 3.925781 317.441406 C 3.585938 316.933594 3.269531 316.410156 2.984375 315.871094 C 2.695312 315.332031 2.433594 314.777344 2.199219 314.214844 C 1.964844 313.648438 1.757812 313.074219 1.582031 312.488281 C 1.40625 311.902344 1.257812 311.3125 1.136719 310.710938 C 1.015625 310.109375 0.929688 309.507812 0.867188 308.898438 C 0.808594 308.289062 0.777344 307.679688 0.777344 307.066406 C 0.777344 306.457031 0.808594 305.847656 0.867188 305.238281 C 0.929688 304.628906 1.015625 304.023438 1.136719 303.425781 C 1.257812 302.824219 1.40625 302.234375 1.582031 301.648438 C 1.757812 301.0625 1.964844 300.488281 2.199219 299.921875 C 2.433594 299.359375 2.695312 298.804688 2.984375 298.265625 C 3.269531 297.726562 3.585938 297.203125 3.925781 296.695312 C 4.265625 296.1875 4.628906 295.695312 5.015625 295.222656 C 5.40625 294.75 5.816406 294.296875 6.246094 293.863281 C 6.679688 293.433594 7.132812 293.023438 7.605469 292.632812 C 8.078125 292.246094 8.566406 291.882812 9.078125 291.542969 C 9.585938 291.203125 10.109375 290.890625 10.648438 290.601562 C 11.1875 290.3125 11.738281 290.050781 12.304688 289.816406 C 12.871094 289.582031 13.445312 289.378906 14.03125 289.199219 C 14.613281 289.023438 15.207031 288.875 15.808594 288.753906 C 16.40625 288.636719 17.011719 288.546875 17.621094 288.484375 C 18.230469 288.425781 18.839844 288.394531 19.449219 288.394531 C 20.0625 288.394531 20.671875 288.425781 21.28125 288.484375 C 21.890625 288.546875 22.492188 288.636719 23.09375 288.753906 C 23.691406 288.875 24.285156 289.023438 24.871094 289.199219 C 25.457031 289.378906 26.03125 289.582031 26.597656 289.816406 C 27.160156 290.050781 27.714844 290.3125 28.253906 290.601562 C 28.792969 290.890625 29.316406 291.203125 29.824219 291.542969 C 30.332031 291.882812 30.824219 292.246094 31.296875 292.632812 C 31.769531 293.023438 32.222656 293.433594 32.652344 293.863281 C 33.085938 294.296875 33.496094 294.75 33.882812 295.222656 C 34.273438 295.695312 34.636719 296.1875 34.976562 296.695312 C 35.316406 297.203125 35.628906 297.726562 35.917969 298.265625 C 36.207031 298.804688 36.46875 299.359375 36.699219 299.921875 C 36.933594 300.488281 37.140625 301.0625 37.320312 301.648438 C 37.496094 302.234375 37.644531 302.824219 37.761719 303.425781 C 37.882812 304.023438 37.972656 304.628906 38.03125 305.238281 C 38.09375 305.847656 38.121094 306.457031 38.121094 307.066406 C 38.121094 307.679688 38.089844 308.289062 38.03125 308.898438 C 37.96875 309.503906 37.878906 310.109375 37.757812 310.710938 C 37.640625 311.308594 37.492188 311.902344 37.3125 312.484375 C 37.132812 313.070312 36.929688 313.644531 36.695312 314.210938 C 36.460938 314.773438 36.199219 315.324219 35.910156 315.863281 C 35.621094 316.402344 35.308594 316.925781 34.96875 317.433594 C 34.628906 317.945312 34.261719 318.433594 33.875 318.90625 C 33.488281 319.378906 33.078125 319.832031 32.644531 320.261719 C 32.214844 320.695312 31.761719 321.105469 31.289062 321.492188 C 30.816406 321.882812 30.324219 322.246094 29.816406 322.585938 C 29.308594 322.925781 28.785156 323.238281 28.246094 323.527344 C 27.707031 323.816406 27.15625 324.078125 26.589844 324.3125 C 26.027344 324.546875 25.453125 324.753906 24.867188 324.929688 C 24.28125 325.109375 23.691406 325.257812 23.089844 325.378906 C 22.492188 325.496094 21.886719 325.585938 21.28125 325.648438 C 20.671875 325.707031 20.0625 325.738281 19.449219 325.742188 Z M 19.449219 296.175781 C 18.734375 296.175781 18.027344 296.246094 17.324219 296.386719 C 16.625 296.523438 15.941406 296.730469 15.28125 297.003906 C 14.621094 297.277344 13.992188 297.613281 13.398438 298.011719 C 12.804688 298.410156 12.253906 298.859375 11.75 299.367188 C 11.242188 299.871094 10.792969 300.421875 10.394531 301.015625 C 9.996094 301.613281 9.660156 302.238281 9.386719 302.898438 C 9.113281 303.5625 8.90625 304.242188 8.765625 304.941406 C 8.628906 305.644531 8.558594 306.351562 8.558594 307.066406 C 8.558594 307.785156 8.628906 308.492188 8.765625 309.191406 C 8.90625 309.894531 9.113281 310.574219 9.386719 311.238281 C 9.660156 311.898438 9.996094 312.523438 10.394531 313.121094 C 10.792969 313.714844 11.242188 314.265625 11.75 314.769531 C 12.253906 315.277344 12.804688 315.726562 13.398438 316.125 C 13.992188 316.523438 14.621094 316.859375 15.28125 317.132812 C 15.941406 317.40625 16.625 317.613281 17.324219 317.75 C 18.027344 317.890625 18.734375 317.960938 19.449219 317.960938 C 20.164062 317.960938 20.875 317.890625 21.574219 317.75 C 22.277344 317.613281 22.957031 317.40625 23.617188 317.132812 C 24.277344 316.859375 24.90625 316.523438 25.5 316.125 C 26.097656 315.726562 26.644531 315.277344 27.152344 314.769531 C 27.65625 314.265625 28.109375 313.714844 28.507812 313.121094 C 28.902344 312.523438 29.238281 311.898438 29.511719 311.238281 C 29.785156 310.574219 29.992188 309.894531 30.132812 309.191406 C 30.273438 308.492188 30.34375 307.785156 30.34375 307.066406 C 30.34375 306.351562 30.273438 305.644531 30.132812 304.941406 C 29.992188 304.242188 29.785156 303.558594 29.511719 302.898438 C 29.238281 302.238281 28.902344 301.609375 28.503906 301.015625 C 28.109375 300.421875 27.65625 299.871094 27.152344 299.363281 C 26.644531 298.859375 26.09375 298.40625 25.5 298.007812 C 24.90625 297.609375 24.277344 297.273438 23.617188 297 C 22.957031 296.726562 22.277344 296.519531 21.574219 296.378906 C 20.875 296.238281 20.164062 296.164062 19.449219 296.164062 Z M 19.449219 296.175781 " fill-opacity="1" fill-rule="nonzero"/><path fill="#000000" d="M 338.433594 192.167969 L 288.882812 192.167969 C 288.367188 192.167969 287.871094 192.070312 287.394531 191.871094 C 286.917969 191.675781 286.496094 191.394531 286.132812 191.027344 C 285.765625 190.664062 285.484375 190.242188 285.289062 189.765625 C 285.089844 189.289062 284.992188 188.792969 284.992188 188.277344 C 284.992188 187.761719 285.089844 187.265625 285.289062 186.789062 C 285.484375 186.3125 285.765625 185.890625 286.132812 185.527344 C 286.496094 185.164062 286.917969 184.882812 287.394531 184.683594 C 287.871094 184.488281 288.367188 184.386719 288.882812 184.386719 L 338.433594 184.386719 C 339.300781 184.386719 340.160156 184.304688 341.015625 184.132812 C 341.867188 183.964844 342.691406 183.714844 343.496094 183.382812 C 344.296875 183.046875 345.058594 182.640625 345.78125 182.160156 C 346.503906 181.675781 347.171875 181.128906 347.785156 180.515625 C 348.398438 179.898438 348.949219 179.230469 349.429688 178.511719 C 349.914062 177.789062 350.320312 177.027344 350.652344 176.222656 C 350.984375 175.421875 351.234375 174.59375 351.40625 173.742188 C 351.574219 172.890625 351.660156 172.03125 351.660156 171.160156 L 351.660156 84.269531 C 351.660156 83.753906 351.757812 83.257812 351.957031 82.78125 C 352.152344 82.304688 352.433594 81.882812 352.800781 81.519531 C 353.164062 81.15625 353.585938 80.875 354.0625 80.675781 C 354.539062 80.480469 355.035156 80.378906 355.550781 80.378906 C 356.066406 80.378906 356.5625 80.480469 357.039062 80.675781 C 357.515625 80.875 357.9375 81.15625 358.300781 81.519531 C 358.664062 81.882812 358.945312 82.304688 359.144531 82.78125 C 359.339844 83.257812 359.441406 83.753906 359.441406 84.269531 L 359.441406 171.160156 C 359.4375 171.851562 359.40625 172.535156 359.335938 173.21875 C 359.269531 173.90625 359.167969 174.585938 359.03125 175.257812 C 358.898438 175.933594 358.730469 176.597656 358.53125 177.257812 C 358.332031 177.914062 358.097656 178.5625 357.835938 179.199219 C 357.570312 179.832031 357.277344 180.453125 356.953125 181.058594 C 356.628906 181.667969 356.277344 182.257812 355.894531 182.828125 C 355.511719 183.398438 355.101562 183.953125 354.664062 184.484375 C 354.230469 185.015625 353.769531 185.523438 353.28125 186.011719 C 352.796875 186.496094 352.285156 186.957031 351.753906 187.394531 C 351.222656 187.832031 350.671875 188.238281 350.097656 188.621094 C 349.527344 189.003906 348.9375 189.359375 348.332031 189.683594 C 347.726562 190.007812 347.105469 190.300781 346.46875 190.5625 C 345.832031 190.828125 345.1875 191.058594 344.527344 191.257812 C 343.871094 191.460938 343.203125 191.625 342.53125 191.761719 C 341.855469 191.894531 341.175781 191.996094 340.492188 192.066406 C 339.808594 192.132812 339.121094 192.167969 338.433594 192.167969 Z M 338.433594 192.167969 " fill-opacity="1" fill-rule="nonzero"/><path fill="#000000" d="M 355.550781 88.171875 C 354.9375 88.171875 354.328125 88.140625 353.71875 88.082031 C 353.109375 88.023438 352.507812 87.933594 351.90625 87.8125 C 351.308594 87.695312 350.714844 87.546875 350.128906 87.367188 C 349.542969 87.191406 348.96875 86.984375 348.402344 86.75 C 347.839844 86.515625 347.285156 86.253906 346.746094 85.96875 C 346.207031 85.679688 345.683594 85.363281 345.175781 85.023438 C 344.667969 84.683594 344.175781 84.320312 343.703125 83.933594 C 343.230469 83.546875 342.777344 83.136719 342.347656 82.703125 C 341.914062 82.269531 341.503906 81.816406 341.117188 81.34375 C 340.726562 80.871094 340.363281 80.382812 340.023438 79.875 C 339.683594 79.363281 339.371094 78.839844 339.082031 78.300781 C 338.792969 77.761719 338.53125 77.210938 338.296875 76.644531 C 338.066406 76.078125 337.859375 75.503906 337.679688 74.917969 C 337.503906 74.335938 337.355469 73.742188 337.234375 73.140625 C 337.117188 72.542969 337.027344 71.9375 336.96875 71.328125 C 336.90625 70.722656 336.878906 70.109375 336.878906 69.5 C 336.878906 68.886719 336.90625 68.277344 336.96875 67.667969 C 337.027344 67.0625 337.117188 66.457031 337.234375 65.855469 C 337.355469 65.257812 337.503906 64.664062 337.679688 64.078125 C 337.859375 63.492188 338.066406 62.917969 338.296875 62.355469 C 338.53125 61.789062 338.792969 61.238281 339.082031 60.699219 C 339.371094 60.15625 339.683594 59.632812 340.023438 59.125 C 340.363281 58.617188 340.726562 58.125 341.117188 57.652344 C 341.503906 57.179688 341.914062 56.730469 342.347656 56.296875 C 342.777344 55.863281 343.230469 55.453125 343.703125 55.066406 C 344.175781 54.675781 344.667969 54.3125 345.175781 53.972656 C 345.683594 53.632812 346.207031 53.320312 346.746094 53.03125 C 347.285156 52.742188 347.839844 52.484375 348.402344 52.25 C 348.96875 52.015625 349.542969 51.808594 350.128906 51.632812 C 350.714844 51.453125 351.308594 51.304688 351.90625 51.1875 C 352.507812 51.066406 353.109375 50.976562 353.71875 50.917969 C 354.328125 50.855469 354.9375 50.828125 355.550781 50.828125 C 356.160156 50.828125 356.769531 50.855469 357.378906 50.917969 C 357.988281 50.976562 358.59375 51.066406 359.191406 51.1875 C 359.792969 51.304688 360.386719 51.453125 360.96875 51.632812 C 361.554688 51.808594 362.128906 52.015625 362.695312 52.25 C 363.261719 52.484375 363.8125 52.742188 364.351562 53.03125 C 364.890625 53.320312 365.414062 53.632812 365.921875 53.972656 C 366.433594 54.3125 366.921875 54.675781 367.394531 55.066406 C 367.867188 55.453125 368.320312 55.863281 368.753906 56.296875 C 369.183594 56.730469 369.59375 57.179688 369.984375 57.652344 C 370.371094 58.125 370.734375 58.617188 371.074219 59.125 C 371.414062 59.632812 371.730469 60.15625 372.015625 60.699219 C 372.304688 61.238281 372.566406 61.789062 372.800781 62.355469 C 373.035156 62.917969 373.242188 63.492188 373.417969 64.078125 C 373.59375 64.664062 373.742188 65.257812 373.863281 65.855469 C 373.984375 66.457031 374.070312 67.0625 374.132812 67.667969 C 374.191406 68.277344 374.222656 68.886719 374.222656 69.5 C 374.222656 70.109375 374.191406 70.71875 374.128906 71.328125 C 374.070312 71.9375 373.976562 72.539062 373.859375 73.140625 C 373.738281 73.738281 373.589844 74.332031 373.410156 74.917969 C 373.234375 75.5 373.027344 76.074219 372.792969 76.640625 C 372.558594 77.203125 372.296875 77.757812 372.007812 78.296875 C 371.71875 78.835938 371.40625 79.359375 371.066406 79.867188 C 370.726562 80.375 370.363281 80.863281 369.972656 81.335938 C 369.585938 81.808594 369.175781 82.261719 368.742188 82.695312 C 368.3125 83.125 367.859375 83.535156 367.386719 83.921875 C 366.914062 84.3125 366.425781 84.675781 365.917969 85.015625 C 365.40625 85.355469 364.882812 85.667969 364.34375 85.957031 C 363.808594 86.246094 363.253906 86.507812 362.691406 86.742188 C 362.125 86.976562 361.550781 87.183594 360.964844 87.359375 C 360.382812 87.539062 359.789062 87.6875 359.191406 87.808594 C 358.589844 87.929688 357.988281 88.019531 357.378906 88.078125 C 356.769531 88.140625 356.160156 88.171875 355.550781 88.171875 Z M 355.550781 58.605469 C 354.835938 58.605469 354.125 58.675781 353.425781 58.816406 C 352.722656 58.957031 352.042969 59.164062 351.382812 59.4375 C 350.722656 59.710938 350.09375 60.046875 349.5 60.441406 C 348.902344 60.839844 348.355469 61.292969 347.847656 61.796875 C 347.34375 62.304688 346.890625 62.851562 346.492188 63.449219 C 346.097656 64.042969 345.761719 64.671875 345.488281 65.332031 C 345.214844 65.992188 345.007812 66.671875 344.867188 67.375 C 344.726562 68.074219 344.65625 68.785156 344.65625 69.5 C 344.65625 70.214844 344.726562 70.921875 344.867188 71.625 C 345.007812 72.324219 345.214844 73.007812 345.488281 73.667969 C 345.761719 74.328125 346.097656 74.957031 346.492188 75.550781 C 346.890625 76.144531 347.34375 76.695312 347.847656 77.203125 C 348.355469 77.707031 348.902344 78.160156 349.5 78.554688 C 350.09375 78.953125 350.722656 79.289062 351.382812 79.5625 C 352.042969 79.835938 352.722656 80.042969 353.425781 80.183594 C 354.125 80.320312 354.835938 80.390625 355.550781 80.390625 C 356.265625 80.390625 356.972656 80.320312 357.675781 80.183594 C 358.375 80.042969 359.058594 79.835938 359.71875 79.5625 C 360.378906 79.289062 361.007812 78.953125 361.601562 78.554688 C 362.195312 78.160156 362.746094 77.707031 363.25 77.203125 C 363.757812 76.695312 364.207031 76.144531 364.605469 75.550781 C 365.003906 74.957031 365.339844 74.328125 365.613281 73.667969 C 365.886719 73.007812 366.09375 72.324219 366.234375 71.625 C 366.371094 70.921875 366.441406 70.214844 366.441406 69.5 C 366.441406 68.785156 366.375 68.074219 366.234375 67.371094 C 366.09375 66.671875 365.890625 65.988281 365.617188 65.328125 C 365.34375 64.667969 365.007812 64.039062 364.609375 63.441406 C 364.214844 62.847656 363.761719 62.296875 363.253906 61.789062 C 362.75 61.285156 362.199219 60.832031 361.605469 60.433594 C 361.011719 60.035156 360.382812 59.699219 359.71875 59.425781 C 359.058594 59.152344 358.378906 58.945312 357.675781 58.804688 C 356.972656 58.664062 356.265625 58.59375 355.550781 58.59375 Z M 355.550781 58.605469 " fill-opacity="1" fill-rule="nonzero"/></svg>