<svg xmlns="http://www.w3.org/2000/svg" xmlns:xlink="http://www.w3.org/1999/xlink" width="500" zoomAndPan="magnify" viewBox="0 0 375 374.999991" height="500" preserveAspectRatio="xMidYMid meet" version="1.0"><defs><clipPath id="9137c96b81"><path d="M 5.859375 1 L 368 1 L 368 374 L 5.859375 374 Z M 5.859375 1 " clip-rule="nonzero"/></clipPath></defs><g clip-path="url(#9137c96b81)"><path fill="#000000" d="M 296.636719 1.070312 C 294.21875 1.210938 291.847656 2.105469 289.921875 3.632812 L 262.878906 24.917969 C 259.308594 17.046875 250.507812 12.652344 241.867188 14.957031 C 233.789062 17.117188 228.53125 24.496094 228.578125 32.484375 L 207.121094 46.675781 C 201.394531 50.457031 198.386719 57.105469 199.140625 63.777344 L 112.417969 87.0625 C 101.242188 78.390625 87.226562 73.222656 71.96875 73.222656 C 35.488281 73.222656 5.859375 102.871094 5.859375 139.382812 C 5.859375 175.894531 35.488281 205.542969 71.96875 205.542969 C 72.8125 205.542969 73.707031 205.542969 74.550781 205.472656 L 131.691406 277.71875 L 117.769531 277.71875 C 113.167969 277.71875 109.0625 280.28125 106.996094 284.367188 L 98.308594 301.777344 L 47.929688 301.777344 C 31.355469 301.777344 17.878906 315.261719 17.878906 331.851562 L 17.878906 355.910156 C 17.878906 365.847656 25.980469 373.953125 35.910156 373.953125 L 336.40625 373.953125 C 346.335938 373.953125 354.433594 365.847656 354.433594 355.910156 L 354.433594 331.851562 C 354.433594 315.261719 340.960938 301.777344 324.386719 301.777344 L 274.003906 301.777344 L 265.320312 284.367188 C 263.277344 280.28125 259.144531 277.71875 254.566406 277.71875 L 231.113281 277.71875 L 135.660156 157.050781 C 136.996094 152.375 137.773438 147.511719 138.007812 142.460938 L 214.703125 121.878906 C 217.378906 128.058594 223.273438 132.289062 230.128906 132.710938 L 255.8125 134.238281 C 259.003906 139.851562 264.96875 143.378906 271.421875 143.378906 C 272.972656 143.378906 274.523438 143.1875 276.09375 142.765625 C 284.710938 140.464844 290.132812 132.21875 289.289062 123.617188 L 323.351562 128.527344 C 323.917969 128.621094 324.503906 128.667969 325.066406 128.667969 C 327.742188 128.667969 330.394531 127.753906 332.507812 126.0625 L 363.355469 101.792969 C 367.136719 98.832031 368.78125 93.898438 367.511719 89.222656 L 364.390625 77.546875 C 363.402344 73.855469 360.820312 70.921875 357.277344 69.488281 C 353.753906 68.078125 349.859375 68.382812 346.59375 70.332031 L 318.070312 87.4375 L 277.035156 76.628906 L 275.742188 71.765625 L 305.886719 41.882812 L 339.128906 42.421875 C 342.816406 42.445312 346.453125 40.800781 348.800781 37.792969 C 351.148438 34.785156 351.921875 30.957031 350.9375 27.265625 L 347.792969 15.566406 C 346.570312 10.914062 342.675781 7.460938 337.90625 6.78125 L 299.054688 1.1875 C 298.257812 1.070312 297.433594 1.023438 296.636719 1.070312 Z M 297.339844 13.078125 L 336.195312 18.667969 L 339.316406 30.367188 L 306.074219 29.828125 C 302.976562 29.734375 299.6875 31.050781 297.410156 33.328125 L 272.152344 58.375 L 266.515625 37.371094 Z M 246.539062 26.375 C 249.191406 26.375 251.609375 28.136719 252.335938 30.839844 L 260.0625 59.691406 L 263.230469 71.507812 L 270.765625 99.699219 L 274.640625 114.125 L 274.640625 114.148438 L 277.222656 123.78125 C 278.066406 126.976562 276.164062 130.289062 272.972656 131.136719 C 269.78125 132.007812 266.46875 130.101562 265.601562 126.882812 L 240.714844 33.941406 C 239.847656 30.746094 241.773438 27.433594 244.964844 26.5625 C 245.480469 26.445312 246 26.375 246.539062 26.375 Z M 231.253906 45.125 L 251.820312 121.949219 L 230.855469 120.683594 C 228.273438 120.539062 226.089844 118.730469 225.410156 116.242188 L 224.566406 113.046875 C 224.566406 113.023438 224.566406 113 224.566406 112.976562 L 212.097656 66.550781 L 211.230469 63.261719 C 210.574219 60.769531 211.558594 58.140625 213.742188 56.707031 Z M 202.050781 75.453125 L 211.394531 110.34375 L 137.421875 130.125 C 135.683594 117.558594 130.378906 106.066406 122.582031 96.742188 Z M 352.769531 80.648438 L 355.914062 92.347656 L 325.089844 116.640625 L 286.261719 111.027344 L 280.625 90.019531 L 314.996094 99.066406 C 318.117188 99.890625 321.5 99.417969 324.269531 97.75 Z M 71.96875 85.253906 C 80.867188 85.253906 89.269531 87.414062 96.664062 91.265625 C 101.289062 93.617188 105.632812 96.671875 109.34375 100.289062 C 118.242188 108.839844 124.25 120.375 125.683594 133.25 C 125.941406 135.296875 126.058594 137.339844 126.058594 139.382812 C 126.058594 141.121094 125.988281 142.859375 125.753906 144.550781 C 125.753906 144.976562 125.753906 145.351562 125.636719 145.773438 C 125.09375 150.519531 123.945312 155.078125 122.207031 159.355469 C 115.234375 176.972656 99.25 190.039062 79.949219 192.925781 C 77.320312 193.328125 74.667969 193.515625 71.96875 193.515625 C 69.503906 193.515625 67.085938 193.328125 64.691406 193.042969 C 38.304688 189.472656 17.878906 166.753906 17.878906 139.382812 C 17.878906 109.546875 42.152344 85.253906 71.96875 85.253906 Z M 71.96875 109.308594 C 55.394531 109.308594 41.917969 122.796875 41.917969 139.382812 C 41.917969 155.96875 55.394531 169.457031 71.96875 169.457031 C 88.542969 169.457031 102.019531 155.96875 102.019531 139.382812 C 102.019531 122.796875 88.542969 109.308594 71.96875 109.308594 Z M 71.96875 121.339844 C 81.898438 121.339844 90 129.445312 90 139.382812 C 90 149.320312 81.898438 157.425781 71.96875 157.425781 C 62.039062 157.425781 53.9375 149.320312 53.9375 139.382812 C 53.9375 129.445312 62.039062 121.339844 71.96875 121.339844 Z M 130.566406 169.925781 L 215.785156 277.71875 L 146.976562 277.71875 L 88.261719 203.5 C 106.644531 198.871094 121.972656 186.417969 130.566406 169.925781 Z M 117.746094 289.746094 L 254.566406 289.746094 L 260.578125 301.777344 L 111.738281 301.777344 Z M 47.929688 313.804688 L 324.386719 313.804688 C 334.316406 313.804688 342.414062 321.910156 342.414062 331.851562 L 342.414062 355.910156 C 342.414062 359.222656 339.714844 361.921875 336.40625 361.921875 L 35.910156 361.921875 C 32.597656 361.921875 29.898438 359.222656 29.898438 355.910156 L 29.898438 331.851562 C 29.898438 321.910156 38 313.804688 47.929688 313.804688 Z M 53.9375 325.835938 C 50.628906 325.835938 47.929688 328.539062 47.929688 331.851562 L 47.929688 343.878906 C 47.929688 347.191406 50.628906 349.894531 53.9375 349.894531 C 57.25 349.894531 59.949219 347.191406 59.949219 343.878906 L 59.949219 331.851562 C 59.949219 328.539062 57.25 325.835938 53.9375 325.835938 Z M 83.988281 325.835938 C 80.679688 325.835938 77.980469 328.539062 77.980469 331.851562 L 77.980469 343.878906 C 77.980469 347.191406 80.679688 349.894531 83.988281 349.894531 C 87.296875 349.894531 90 347.191406 90 343.878906 L 90 331.851562 C 90 328.539062 87.296875 325.835938 83.988281 325.835938 Z M 114.039062 325.835938 C 110.726562 325.835938 108.027344 328.539062 108.027344 331.851562 L 108.027344 343.878906 C 108.027344 347.191406 110.726562 349.894531 114.039062 349.894531 C 117.347656 349.894531 120.046875 347.191406 120.046875 343.878906 L 120.046875 331.851562 C 120.046875 328.539062 117.347656 325.835938 114.039062 325.835938 Z M 144.085938 325.835938 C 140.777344 325.835938 138.078125 328.539062 138.078125 331.851562 L 138.078125 343.878906 C 138.078125 347.191406 140.777344 349.894531 144.085938 349.894531 C 147.398438 349.894531 150.097656 347.191406 150.097656 343.878906 L 150.097656 331.851562 C 150.097656 328.539062 147.398438 325.835938 144.085938 325.835938 Z M 174.136719 325.835938 C 170.828125 325.835938 168.128906 328.539062 168.128906 331.851562 L 168.128906 343.878906 C 168.128906 347.191406 170.828125 349.894531 174.136719 349.894531 C 177.449219 349.894531 180.148438 347.191406 180.148438 343.878906 L 180.148438 331.851562 C 180.148438 328.539062 177.449219 325.835938 174.136719 325.835938 Z M 204.1875 325.835938 C 200.878906 325.835938 198.175781 328.539062 198.175781 331.851562 L 198.175781 343.878906 C 198.175781 347.191406 200.878906 349.894531 204.1875 349.894531 C 207.496094 349.894531 210.195312 347.191406 210.195312 343.878906 L 210.195312 331.851562 C 210.195312 328.539062 207.496094 325.835938 204.1875 325.835938 Z M 234.238281 325.835938 C 230.925781 325.835938 228.226562 328.539062 228.226562 331.851562 L 228.226562 343.878906 C 228.226562 347.191406 230.925781 349.894531 234.238281 349.894531 C 237.546875 349.894531 240.246094 347.191406 240.246094 343.878906 L 240.246094 331.851562 C 240.246094 328.539062 237.546875 325.835938 234.238281 325.835938 Z M 264.285156 325.835938 C 260.976562 325.835938 258.277344 328.539062 258.277344 331.851562 L 258.277344 343.878906 C 258.277344 347.191406 260.976562 349.894531 264.285156 349.894531 C 267.597656 349.894531 270.296875 347.191406 270.296875 343.878906 L 270.296875 331.851562 C 270.296875 328.539062 267.597656 325.835938 264.285156 325.835938 Z M 294.335938 325.835938 C 291.027344 325.835938 288.328125 328.539062 288.328125 331.851562 L 288.328125 343.878906 C 288.328125 347.191406 291.027344 349.894531 294.335938 349.894531 C 297.644531 349.894531 300.347656 347.191406 300.347656 343.878906 L 300.347656 331.851562 C 300.347656 328.539062 297.644531 325.835938 294.335938 325.835938 Z M 324.386719 325.835938 C 321.074219 325.835938 318.375 328.539062 318.375 331.851562 L 318.375 343.878906 C 318.375 347.191406 321.074219 349.894531 324.386719 349.894531 C 327.695312 349.894531 330.394531 347.191406 330.394531 343.878906 L 330.394531 331.851562 C 330.394531 328.539062 327.695312 325.835938 324.386719 325.835938 Z M 324.386719 325.835938 " fill-opacity="1" fill-rule="nonzero"/></g></svg>