<svg xmlns="http://www.w3.org/2000/svg" xmlns:xlink="http://www.w3.org/1999/xlink" width="500" zoomAndPan="magnify" viewBox="0 0 375 374.999991" height="500" preserveAspectRatio="xMidYMid meet" version="1.0"><path fill="#000000" d="M 200.894531 281.25 C 200.894531 282.128906 200.808594 283 200.636719 283.863281 C 200.464844 284.726562 200.210938 285.5625 199.875 286.375 C 199.535156 287.1875 199.125 287.960938 198.636719 288.691406 C 198.148438 289.421875 197.59375 290.097656 196.96875 290.71875 C 196.347656 291.34375 195.671875 291.898438 194.941406 292.386719 C 194.210938 292.875 193.4375 293.285156 192.625 293.625 C 191.8125 293.960938 190.976562 294.214844 190.113281 294.386719 C 189.25 294.558594 188.378906 294.644531 187.5 294.644531 C 186.621094 294.644531 185.75 294.558594 184.886719 294.386719 C 184.023438 294.214844 183.1875 293.960938 182.375 293.625 C 181.5625 293.285156 180.789062 292.875 180.058594 292.386719 C 179.328125 291.898438 178.652344 291.34375 178.03125 290.71875 C 177.40625 290.097656 176.851562 289.421875 176.363281 288.691406 C 175.875 287.960938 175.464844 287.1875 175.125 286.375 C 174.789062 285.5625 174.535156 284.726562 174.363281 283.863281 C 174.191406 283 174.105469 282.128906 174.105469 281.25 C 174.105469 280.371094 174.191406 279.5 174.363281 278.636719 C 174.535156 277.773438 174.789062 276.9375 175.125 276.125 C 175.464844 275.3125 175.875 274.539062 176.363281 273.808594 C 176.851562 273.078125 177.40625 272.402344 178.03125 271.78125 C 178.652344 271.15625 179.328125 270.601562 180.058594 270.113281 C 180.789062 269.625 181.5625 269.214844 182.375 268.875 C 183.1875 268.539062 184.023438 268.285156 184.886719 268.113281 C 185.75 267.941406 186.621094 267.855469 187.5 267.855469 C 188.378906 267.855469 189.25 267.941406 190.113281 268.113281 C 190.976562 268.285156 191.8125 268.539062 192.625 268.875 C 193.4375 269.214844 194.210938 269.625 194.941406 270.113281 C 195.671875 270.601562 196.347656 271.15625 196.96875 271.78125 C 197.59375 272.402344 198.148438 273.078125 198.636719 273.808594 C 199.125 274.539062 199.535156 275.3125 199.875 276.125 C 200.210938 276.9375 200.464844 277.773438 200.636719 278.636719 C 200.808594 279.5 200.894531 280.371094 200.894531 281.25 Z M 200.894531 281.25 " fill-opacity="1" fill-rule="nonzero"/><path fill="#000000" d="M 187.5 207.589844 C 167.746094 207.589844 149.332031 215.289062 135.269531 229.019531 C 133.929688 230.355469 133.929688 232.367188 135.269531 233.707031 C 136.605469 235.042969 138.617188 235.042969 139.957031 233.707031 C 152.679688 221.316406 169.753906 214.285156 187.5 214.285156 C 205.246094 214.285156 222.320312 221.316406 234.710938 234.039062 C 235.378906 234.710938 236.382812 235.042969 237.054688 235.042969 C 237.722656 235.042969 238.726562 234.710938 239.398438 234.039062 C 240.738281 232.699219 240.738281 230.691406 239.398438 229.351562 C 225.667969 215.289062 207.253906 207.589844 187.5 207.589844 Z M 187.5 207.589844 " fill-opacity="1" fill-rule="nonzero"/><path fill="#000000" d="M 187.5 247.769531 C 178.460938 247.769531 170.089844 251.117188 163.726562 257.476562 C 162.386719 258.816406 162.386719 260.824219 163.726562 262.164062 C 165.066406 263.503906 167.074219 263.503906 168.414062 262.164062 C 173.4375 257.144531 180.132812 254.464844 187.5 254.464844 C 194.867188 254.464844 201.226562 257.144531 206.585938 262.164062 C 207.253906 262.835938 208.257812 263.167969 208.929688 263.167969 C 209.597656 263.167969 210.601562 262.835938 211.273438 262.164062 C 212.613281 260.824219 212.613281 258.816406 211.273438 257.476562 C 204.910156 251.117188 196.539062 247.769531 187.5 247.769531 Z M 187.5 247.769531 " fill-opacity="1" fill-rule="nonzero"/><path fill="#000000" d="M 187.5 227.679688 C 173.101562 227.679688 159.710938 233.371094 149.664062 243.414062 C 148.324219 244.753906 148.324219 246.761719 149.664062 248.101562 C 151.003906 249.441406 153.011719 249.441406 154.351562 248.101562 C 163.058594 239.398438 175.113281 234.375 187.5 234.375 C 199.886719 234.375 211.941406 239.398438 220.648438 248.101562 C 221.316406 248.773438 222.320312 249.105469 222.992188 249.105469 C 223.660156 249.105469 224.664062 248.773438 225.335938 248.101562 C 226.675781 246.761719 226.675781 244.753906 225.335938 243.414062 C 215.289062 233.371094 201.898438 227.679688 187.5 227.679688 Z M 187.5 227.679688 " fill-opacity="1" fill-rule="nonzero"/><path fill="#000000" d="M 177.457031 13.394531 C 175.445312 13.394531 174.105469 14.730469 174.105469 16.742188 L 174.105469 20.089844 C 174.105469 22.097656 175.445312 23.4375 177.457031 23.4375 C 179.464844 23.4375 180.804688 22.097656 180.804688 20.089844 L 180.804688 16.742188 C 180.804688 14.730469 179.464844 13.394531 177.457031 13.394531 Z M 177.457031 13.394531 " fill-opacity="1" fill-rule="nonzero"/><path fill="#000000" d="M 177.457031 46.875 C 175.445312 46.875 174.105469 48.214844 174.105469 50.222656 L 174.105469 53.570312 C 174.105469 55.582031 175.445312 56.917969 177.457031 56.917969 C 179.464844 56.917969 180.804688 55.582031 180.804688 53.570312 L 180.804688 50.222656 C 180.804688 48.214844 179.464844 46.875 177.457031 46.875 Z M 177.457031 46.875 " fill-opacity="1" fill-rule="nonzero"/><path fill="#000000" d="M 12.722656 119.867188 L 6.695312 150 C 6.363281 151.003906 6.695312 152.007812 7.367188 152.679688 C 8.035156 153.347656 9.039062 154.019531 10.042969 154.019531 L 56.917969 154.019531 C 57.925781 154.019531 58.929688 153.683594 59.597656 152.679688 C 60.269531 152.007812 60.601562 151.003906 60.269531 150 L 54.242188 119.867188 C 61.941406 113.839844 66.964844 104.464844 66.964844 93.75 C 66.964844 75.335938 51.898438 60.269531 33.480469 60.269531 C 15.066406 60.269531 0 75.335938 0 93.75 C 0 104.464844 5.023438 113.839844 12.722656 119.867188 Z M 50.894531 113.839844 C 50.558594 113.839844 50.558594 113.839844 50.222656 113.839844 L 16.742188 113.839844 C 16.40625 113.839844 16.070312 113.839844 16.070312 113.839844 C 11.050781 109.488281 8.035156 103.792969 7.03125 97.097656 L 20.757812 97.097656 C 22.097656 102.789062 27.457031 107.144531 33.816406 107.144531 C 40.179688 107.144531 45.199219 102.789062 46.875 97.097656 L 60.601562 97.097656 C 59.261719 103.792969 55.914062 109.820312 50.894531 113.839844 Z M 33.480469 66.964844 C 47.210938 66.964844 58.257812 77.34375 59.933594 90.402344 L 46.207031 90.402344 C 44.867188 84.710938 39.507812 80.355469 33.148438 80.355469 C 26.785156 80.355469 21.761719 84.710938 20.089844 90.402344 L 6.363281 90.402344 C 8.707031 77.34375 19.753906 66.964844 33.480469 66.964844 Z M 33.480469 66.964844 " fill-opacity="1" fill-rule="nonzero"/><path fill="#000000" d="M 170.757812 87.054688 L 204.242188 87.054688 C 209.933594 87.054688 214.285156 82.699219 214.285156 77.007812 L 214.285156 10.042969 C 214.285156 4.351562 209.933594 0 204.242188 0 L 170.757812 0 C 165.066406 0 160.714844 4.351562 160.714844 10.042969 L 160.714844 77.007812 C 160.714844 82.699219 165.066406 87.054688 170.757812 87.054688 Z M 204.242188 80.355469 L 170.757812 80.355469 C 168.75 80.355469 167.410156 79.019531 167.410156 77.007812 L 167.410156 40.179688 L 207.589844 40.179688 L 207.589844 77.007812 C 207.589844 79.019531 206.25 80.355469 204.242188 80.355469 Z M 167.410156 10.042969 C 167.410156 8.035156 168.75 6.695312 170.757812 6.695312 L 204.242188 6.695312 C 206.25 6.695312 207.589844 8.035156 207.589844 10.042969 L 207.589844 33.480469 L 167.410156 33.480469 Z M 167.410156 10.042969 " fill-opacity="1" fill-rule="nonzero"/><path fill="#000000" d="M 30.132812 314.730469 C 39.507812 314.730469 46.875 307.367188 46.875 297.992188 C 46.875 297.65625 46.875 296.988281 46.875 296.652344 L 46.875 296.316406 C 45.871094 287.945312 38.839844 281.25 30.132812 281.25 C 21.429688 281.25 14.398438 287.945312 13.394531 296.316406 L 13.394531 296.652344 C 13.394531 296.988281 13.394531 297.65625 13.394531 297.992188 C 13.394531 307.367188 20.757812 314.730469 30.132812 314.730469 Z M 30.132812 287.945312 C 34.488281 287.945312 38.167969 290.625 39.507812 294.308594 C 38.839844 294.644531 38.503906 294.976562 37.835938 295.648438 C 37.164062 296.316406 36.496094 296.316406 35.824219 295.648438 C 32.8125 292.632812 27.457031 292.632812 24.441406 295.648438 C 23.773438 296.316406 23.101562 296.316406 22.433594 295.648438 C 21.761719 295.3125 21.429688 294.644531 20.757812 294.308594 C 22.097656 290.625 25.78125 287.945312 30.132812 287.945312 Z M 30.132812 287.945312 " fill-opacity="1" fill-rule="nonzero"/><path fill="#000000" d="M 50.222656 241.070312 L 10.042969 241.070312 C 4.351562 241.070312 0 245.425781 0 251.117188 L 0 318.082031 C 0 323.4375 4.351562 328.125 10.042969 328.125 L 50.222656 328.125 C 55.914062 328.125 60.269531 323.4375 60.269531 318.082031 L 60.269531 251.117188 C 60.269531 245.425781 55.914062 241.070312 50.222656 241.070312 Z M 40.179688 254.464844 L 43.527344 254.464844 C 45.199219 254.464844 46.875 256.136719 46.875 257.8125 C 46.875 259.488281 45.199219 261.160156 43.527344 261.160156 L 40.179688 261.160156 C 38.503906 261.160156 36.832031 259.488281 36.832031 257.8125 C 36.832031 256.136719 38.503906 254.464844 40.179688 254.464844 Z M 16.742188 254.464844 L 30.132812 254.464844 C 31.808594 254.464844 33.480469 256.136719 33.480469 257.8125 C 33.480469 259.488281 31.808594 261.160156 30.132812 261.160156 L 16.742188 261.160156 C 15.066406 261.160156 13.394531 259.488281 13.394531 257.8125 C 13.394531 256.136719 15.066406 254.464844 16.742188 254.464844 Z M 53.570312 318.082031 C 53.570312 319.753906 51.898438 321.429688 50.222656 321.429688 L 10.042969 321.429688 C 8.371094 321.429688 6.695312 319.753906 6.695312 318.082031 L 6.695312 274.554688 L 53.570312 274.554688 Z M 53.570312 318.082031 " fill-opacity="1" fill-rule="nonzero"/><path fill="#000000" d="M 364.957031 60.269531 L 304.6875 60.269531 C 298.996094 60.269531 294.644531 64.621094 294.644531 70.3125 L 294.644531 103.792969 C 294.644531 109.488281 298.996094 113.839844 304.6875 113.839844 L 364.957031 113.839844 C 370.648438 113.839844 375 109.488281 375 103.792969 L 375 70.3125 C 375 64.621094 370.648438 60.269531 364.957031 60.269531 Z M 304.6875 66.964844 L 364.957031 66.964844 C 366.964844 66.964844 368.304688 68.304688 368.304688 70.3125 L 368.304688 93.75 L 301.339844 93.75 L 301.339844 70.3125 C 301.339844 68.304688 302.679688 66.964844 304.6875 66.964844 Z M 304.6875 66.964844 " fill-opacity="1" fill-rule="nonzero"/><path fill="#000000" d="M 319.417969 137.277344 C 319.417969 135.269531 318.414062 132.925781 317.074219 131.585938 L 313.726562 128.238281 C 312.386719 126.898438 310.378906 126.898438 309.039062 128.238281 C 307.699219 129.574219 307.699219 131.585938 309.039062 132.925781 L 312.386719 136.273438 C 312.722656 136.605469 312.722656 136.941406 312.722656 137.277344 C 312.722656 137.613281 312.722656 137.945312 312.386719 138.28125 C 310.714844 139.957031 310.042969 141.964844 310.042969 143.972656 C 310.042969 145.980469 311.050781 148.324219 312.386719 149.664062 L 315.738281 153.011719 C 316.40625 153.683594 317.410156 154.019531 318.082031 154.019531 C 318.75 154.019531 319.753906 153.683594 320.425781 153.011719 C 321.761719 151.675781 321.761719 149.664062 320.425781 148.324219 L 317.074219 144.976562 C 316.742188 144.644531 316.742188 144.308594 316.742188 143.972656 C 316.742188 143.636719 316.742188 143.304688 317.074219 142.96875 C 318.75 141.628906 319.417969 139.285156 319.417969 137.277344 Z M 319.417969 137.277344 " fill-opacity="1" fill-rule="nonzero"/><path fill="#000000" d="M 339.507812 137.277344 C 339.507812 135.269531 338.503906 132.925781 337.164062 131.585938 L 333.816406 128.238281 C 332.476562 126.898438 330.46875 126.898438 329.128906 128.238281 C 327.789062 129.574219 327.789062 131.585938 329.128906 132.925781 L 332.476562 136.273438 C 332.8125 136.605469 332.8125 136.941406 332.8125 137.277344 C 332.8125 137.613281 332.8125 137.945312 332.476562 138.28125 C 330.804688 139.957031 330.132812 141.964844 330.132812 143.972656 C 330.132812 145.980469 331.136719 148.324219 332.476562 149.664062 L 335.824219 153.011719 C 336.496094 153.683594 337.5 154.019531 338.167969 154.019531 C 338.839844 154.019531 339.84375 153.683594 340.511719 153.011719 C 341.851562 151.675781 341.851562 149.664062 340.511719 148.324219 L 337.164062 144.976562 C 336.832031 144.644531 336.832031 144.308594 336.832031 143.972656 C 336.832031 143.636719 336.832031 143.304688 337.164062 142.96875 C 338.839844 141.628906 339.507812 139.285156 339.507812 137.277344 Z M 339.507812 137.277344 " fill-opacity="1" fill-rule="nonzero"/><path fill="#000000" d="M 359.597656 137.277344 C 359.597656 135.269531 358.59375 132.925781 357.253906 131.585938 L 353.90625 128.238281 C 352.566406 126.898438 350.558594 126.898438 349.21875 128.238281 C 347.878906 129.574219 347.878906 131.585938 349.21875 132.925781 L 352.566406 136.273438 C 352.902344 136.605469 352.902344 136.941406 352.902344 137.277344 C 352.902344 137.613281 352.902344 137.945312 352.566406 138.28125 C 350.894531 139.957031 350.222656 141.964844 350.222656 143.972656 C 350.222656 145.980469 351.226562 148.324219 352.566406 149.664062 L 355.914062 153.011719 C 356.585938 153.683594 357.589844 154.019531 358.257812 154.019531 C 358.929688 154.019531 359.933594 153.683594 360.601562 153.011719 C 361.941406 151.675781 361.941406 149.664062 360.601562 148.324219 L 357.253906 144.976562 C 356.917969 144.644531 356.917969 144.308594 356.917969 143.972656 C 356.917969 143.636719 356.917969 143.304688 357.253906 142.96875 C 358.929688 141.628906 359.597656 139.285156 359.597656 137.277344 Z M 359.597656 137.277344 " fill-opacity="1" fill-rule="nonzero"/><path fill="#000000" d="M 364.957031 261.160156 L 342.855469 261.160156 L 357.253906 246.761719 C 358.59375 245.425781 358.59375 243.414062 357.253906 242.074219 C 355.914062 240.738281 353.90625 240.738281 352.566406 242.074219 L 334.820312 259.820312 L 317.074219 242.074219 C 315.738281 240.738281 313.726562 240.738281 312.386719 242.074219 C 311.050781 243.414062 311.050781 245.425781 312.386719 246.761719 L 326.785156 261.160156 L 304.6875 261.160156 C 298.996094 261.160156 294.644531 265.511719 294.644531 271.207031 L 294.644531 304.6875 C 294.644531 310.378906 298.996094 314.730469 304.6875 314.730469 L 308.035156 314.730469 L 308.035156 318.082031 C 308.035156 323.773438 312.386719 328.125 318.082031 328.125 L 351.5625 328.125 C 357.253906 328.125 361.605469 323.773438 361.605469 318.082031 L 361.605469 314.730469 L 364.957031 314.730469 C 370.648438 314.730469 375 310.378906 375 304.6875 L 375 271.207031 C 375 265.511719 370.648438 261.160156 364.957031 261.160156 Z M 304.6875 267.855469 L 323.4375 267.855469 L 301.339844 289.957031 L 301.339844 271.207031 C 301.339844 269.195312 302.679688 267.855469 304.6875 267.855469 Z M 301.339844 299.332031 L 332.8125 267.855469 L 343.527344 267.855469 L 303.683594 307.699219 C 303.683594 307.699219 303.683594 307.699219 303.347656 307.699219 C 303.011719 307.699219 302.679688 307.367188 302.679688 307.367188 C 302.679688 307.367188 302.34375 307.03125 302.34375 307.03125 C 302.007812 306.695312 302.007812 306.695312 302.007812 306.363281 C 302.007812 306.363281 302.007812 306.027344 302.007812 306.027344 C 302.007812 305.691406 301.675781 305.355469 301.675781 304.6875 L 301.675781 299.332031 Z M 368.304688 304.6875 C 368.304688 306.695312 366.964844 308.035156 364.957031 308.035156 L 312.722656 308.035156 L 352.902344 267.855469 L 364.957031 267.855469 C 366.964844 267.855469 368.304688 269.195312 368.304688 271.207031 Z M 368.304688 304.6875 " fill-opacity="1" fill-rule="nonzero"/><path fill="#000000" d="M 355.914062 282.253906 L 342.523438 295.648438 C 341.183594 296.988281 341.183594 298.996094 342.523438 300.335938 C 343.191406 301.003906 344.195312 301.339844 344.867188 301.339844 C 345.535156 301.339844 346.539062 301.003906 347.210938 300.335938 L 360.601562 286.941406 C 361.941406 285.601562 361.941406 283.59375 360.601562 282.253906 C 359.261719 280.914062 357.253906 280.914062 355.914062 282.253906 Z M 355.914062 282.253906 " fill-opacity="1" fill-rule="nonzero"/><path fill="#000000" d="M 273.550781 265.511719 C 272.542969 264.507812 271.207031 264.175781 269.867188 264.84375 C 268.527344 265.179688 267.855469 266.519531 267.855469 267.855469 L 267.855469 271.207031 L 254.464844 271.207031 L 254.464844 220.980469 L 324.777344 220.980469 C 341.519531 220.980469 354.910156 207.589844 354.910156 190.847656 L 354.910156 187.5 L 358.257812 187.5 C 359.597656 187.5 360.9375 186.832031 361.273438 185.492188 C 361.941406 184.152344 361.605469 182.8125 360.601562 181.808594 L 343.863281 165.066406 C 342.523438 163.726562 340.511719 163.726562 339.175781 165.066406 L 322.433594 181.808594 C 321.429688 182.8125 321.09375 184.152344 321.761719 185.492188 C 322.433594 186.832031 323.4375 187.5 324.777344 187.5 L 327.457031 187.5 C 326.117188 191.519531 322.433594 194.195312 318.082031 194.195312 L 254.464844 194.195312 L 254.464844 170.757812 C 254.464844 161.382812 247.097656 154.019531 237.722656 154.019531 L 200.894531 154.019531 L 200.894531 123.882812 L 204.242188 123.882812 C 205.582031 123.882812 206.917969 123.214844 207.253906 121.875 C 207.925781 120.535156 207.589844 119.195312 206.585938 118.191406 L 189.84375 101.449219 C 188.503906 100.113281 186.496094 100.113281 185.15625 101.449219 L 168.414062 118.191406 C 167.410156 119.195312 167.074219 120.535156 167.746094 121.875 C 168.414062 123.214844 169.417969 123.882812 170.757812 123.882812 L 174.105469 123.882812 L 174.105469 154.019531 L 137.277344 154.019531 C 127.902344 154.019531 120.535156 161.382812 120.535156 170.757812 L 120.535156 194.195312 L 56.917969 194.195312 C 52.566406 194.195312 48.882812 191.519531 47.542969 187.5 L 50.222656 187.5 C 51.5625 187.5 52.902344 186.832031 53.238281 185.492188 C 53.90625 184.152344 53.570312 182.8125 52.566406 181.808594 L 35.824219 165.066406 C 34.488281 163.726562 32.476562 163.726562 31.136719 165.066406 L 14.398438 181.808594 C 13.394531 182.8125 13.058594 184.152344 13.726562 185.492188 C 14.398438 186.832031 15.402344 187.5 16.742188 187.5 L 20.089844 187.5 L 20.089844 190.847656 C 20.089844 207.589844 33.480469 220.980469 50.222656 220.980469 L 120.535156 220.980469 L 120.535156 271.207031 L 107.144531 271.207031 L 107.144531 267.855469 C 107.144531 266.519531 106.472656 265.179688 105.132812 264.84375 C 103.792969 264.507812 102.457031 264.507812 101.449219 265.511719 L 84.710938 282.253906 C 83.371094 283.59375 83.371094 285.601562 84.710938 286.941406 L 101.449219 303.683594 C 102.121094 304.351562 102.789062 304.6875 103.792969 304.6875 C 104.128906 304.6875 104.800781 304.6875 105.132812 304.351562 C 106.472656 303.683594 107.144531 302.679688 107.144531 301.339844 L 107.144531 297.992188 L 120.535156 297.992188 L 120.535156 358.257812 C 120.535156 367.632812 127.902344 375 137.277344 375 L 237.722656 375 C 247.097656 375 254.464844 367.632812 254.464844 358.257812 L 254.464844 297.992188 L 267.855469 297.992188 L 267.855469 301.339844 C 267.855469 302.679688 268.527344 304.019531 269.867188 304.351562 C 270.199219 304.6875 270.871094 304.6875 271.207031 304.6875 C 272.210938 304.6875 272.878906 304.351562 273.550781 303.683594 L 290.289062 286.941406 C 291.628906 285.601562 291.628906 283.59375 290.289062 282.253906 Z M 190.847656 358.257812 L 184.152344 358.257812 C 182.144531 358.257812 180.804688 356.917969 180.804688 354.910156 C 180.804688 352.902344 182.144531 351.5625 184.152344 351.5625 L 190.847656 351.5625 C 192.855469 351.5625 194.195312 352.902344 194.195312 354.910156 C 194.195312 356.917969 192.855469 358.257812 190.847656 358.257812 Z M 247.769531 334.820312 L 127.230469 334.820312 L 127.230469 170.757812 C 127.230469 165.066406 131.585938 160.714844 137.277344 160.714844 L 237.722656 160.714844 C 243.414062 160.714844 247.769531 165.066406 247.769531 170.757812 Z M 247.769531 334.820312 " fill-opacity="1" fill-rule="nonzero"/></svg>